<svg width="61" height="57" viewBox="0 0 61 57" fill="none" xmlns="http://www.w3.org/2000/svg">
<g filter="url(#filter0_d_870_11)">
<path d="M6 12C6 5.37258 11.3726 0 18 0H43C49.6274 0 55 5.37258 55 12V37C55 43.6274 49.6274 49 43 49H18C11.3726 49 6 43.6274 6 37V12Z" fill="#1A73E7"/>
<path d="M30.3125 16.0625C26.5625 16.0625 23.5625 19.0625 23.5625 22.8125V28.0625C23.5625 28.6592 23.7996 29.2315 24.2215 29.6535C24.6435 30.0754 25.2158 30.3125 25.8125 30.3125H28.0625V24.3125H25.0625V22.8125C25.0625 21.4201 25.6156 20.0848 26.6002 19.1002C27.5848 18.1156 28.9201 17.5625 30.3125 17.5625C31.7049 17.5625 33.0402 18.1156 34.0248 19.1002C35.0094 20.0848 35.5625 21.4201 35.5625 22.8125V24.3125H32.5625V30.3125H34.8125C35.4092 30.3125 35.9815 30.0754 36.4035 29.6535C36.8254 29.2315 37.0625 28.6592 37.0625 28.0625V22.8125C37.0625 19.0625 34.04 16.0625 30.3125 16.0625Z" fill="white"/>
</g>
<defs>
<filter id="filter0_d_870_11" x="0" y="-4" width="61" height="61" filterUnits="userSpaceOnUse" color-interpolation-filters="sRGB">
<feFlood flood-opacity="0" result="BackgroundImageFix"/>
<feColorMatrix in="SourceAlpha" type="matrix" values="0 0 0 0 0 0 0 0 0 0 0 0 0 0 0 0 0 0 127 0" result="hardAlpha"/>
<feOffset dy="2"/>
<feGaussianBlur stdDeviation="3"/>
<feComposite in2="hardAlpha" operator="out"/>
<feColorMatrix type="matrix" values="0 0 0 0 0.156863 0 0 0 0 0.505882 0 0 0 0 0.921569 0 0 0 0.36 0"/>
<feBlend mode="normal" in2="BackgroundImageFix" result="effect1_dropShadow_870_11"/>
<feBlend mode="normal" in="SourceGraphic" in2="effect1_dropShadow_870_11" result="shape"/>
</filter>
</defs>
</svg>
