<svg width="58" height="58" viewBox="0 0 58 58" fill="none" xmlns="http://www.w3.org/2000/svg">
<g filter="url(#filter0_d_108_1194)">
<path d="M37 20H35V19C35 18.7348 34.8946 18.4804 34.7071 18.2929C34.5196 18.1054 34.2652 18 34 18C33.7348 18 33.4804 18.1054 33.2929 18.2929C33.1054 18.4804 33 18.7348 33 19V20H27V19C27 18.7348 26.8946 18.4804 26.7071 18.2929C26.5196 18.1054 26.2652 18 26 18C25.7348 18 25.4804 18.1054 25.2929 18.2929C25.1054 18.4804 25 18.7348 25 19V20H23C22.2044 20 21.4413 20.3161 20.8787 20.8787C20.3161 21.4413 20 22.2044 20 23V35C20 35.7956 20.3161 36.5587 20.8787 37.1213C21.4413 37.6839 22.2044 38 23 38H37C37.7956 38 38.5587 37.6839 39.1213 37.1213C39.6839 36.5587 40 35.7956 40 35V23C40 22.2044 39.6839 21.4413 39.1213 20.8787C38.5587 20.3161 37.7956 20 37 20ZM38 35C38 35.2652 37.8946 35.5196 37.7071 35.7071C37.5196 35.8946 37.2652 36 37 36H23C22.7348 36 22.4804 35.8946 22.2929 35.7071C22.1054 35.5196 22 35.2652 22 35V28H38V35ZM38 26H22V23C22 22.7348 22.1054 22.4804 22.2929 22.2929C22.4804 22.1054 22.7348 22 23 22H25V23C25 23.2652 25.1054 23.5196 25.2929 23.7071C25.4804 23.8946 25.7348 24 26 24C26.2652 24 26.5196 23.8946 26.7071 23.7071C26.8946 23.5196 27 23.2652 27 23V22H33V23C33 23.2652 33.1054 23.5196 33.2929 23.7071C33.4804 23.8946 33.7348 24 34 24C34.2652 24 34.5196 23.8946 34.7071 23.7071C34.8946 23.5196 35 23.2652 35 23V22H37C37.2652 22 37.5196 22.1054 37.7071 22.2929C37.8946 22.4804 38 22.7348 38 23V26Z" fill="#F05922"/>
</g>
<defs>
<filter id="filter0_d_108_1194" x="0" y="0" width="58" height="58" filterUnits="userSpaceOnUse" color-interpolation-filters="sRGB">
<feFlood flood-opacity="0" result="BackgroundImageFix"/>
<feColorMatrix in="SourceAlpha" type="matrix" values="0 0 0 0 0 0 0 0 0 0 0 0 0 0 0 0 0 0 127 0" result="hardAlpha"/>
<feOffset dx="-1" dy="1"/>
<feGaussianBlur stdDeviation="9.5"/>
<feComposite in2="hardAlpha" operator="out"/>
<feColorMatrix type="matrix" values="0 0 0 0 0 0 0 0 0 0 0 0 0 0 0 0 0 0 0.07 0"/>
<feBlend mode="normal" in2="BackgroundImageFix" result="effect1_dropShadow_108_1194"/>
<feBlend mode="normal" in="SourceGraphic" in2="effect1_dropShadow_108_1194" result="shape"/>
</filter>
</defs>
</svg>
