<svg width="16" height="16" viewBox="0 0 16 16" fill="none" xmlns="http://www.w3.org/2000/svg">
<path d="M8 0C3.58214 0 0 3.58214 0 8C0 12.4179 3.58214 16 8 16C12.4179 16 16 12.4179 16 8C16 3.58214 12.4179 0 8 0ZM8 14.6429C4.33214 14.6429 1.35714 11.6679 1.35714 8C1.35714 4.33214 4.33214 1.35714 8 1.35714C11.6679 1.35714 14.6429 4.33214 14.6429 8C14.6429 11.6679 11.6679 14.6429 8 14.6429Z" fill="#6B6A6A"/>
<path d="M11.1198 10.2609L8.57335 8.4198V4.00016C8.57335 3.92159 8.50907 3.8573 8.4305 3.8573H7.57157C7.493 3.8573 7.42871 3.92159 7.42871 4.00016V8.91801C7.42871 8.96444 7.45014 9.0073 7.48764 9.03409L10.4412 11.1877C10.5055 11.2341 10.5948 11.2198 10.6412 11.1573L11.1519 10.4609C11.1984 10.3948 11.1841 10.3055 11.1198 10.2609Z" fill="#6B6A6A"/>
</svg>
