<svg width="29" height="22" viewBox="0 0 29 22" fill="none" xmlns="http://www.w3.org/2000/svg">
<path d="M27.5062 9.55316C28.1663 10.4166 28.1663 11.5823 27.5062 12.4444C25.4269 15.1587 20.4383 20.7475 14.6141 20.7475C8.78994 20.7475 3.80135 15.1587 1.72208 12.4444C1.40091 12.0309 1.22656 11.5223 1.22656 10.9988C1.22656 10.4752 1.40091 9.9666 1.72208 9.55316C3.80135 6.83882 8.78994 1.25 14.6141 1.25C20.4383 1.25 25.4269 6.83882 27.5062 9.55316V9.55316Z" stroke="#F05922" stroke-width="2" stroke-linecap="round" stroke-linejoin="round"/>
<path d="M14.6097 15.1768C16.9171 15.1768 18.7877 13.3062 18.7877 10.9987C18.7877 8.69125 16.9171 6.82068 14.6097 6.82068C12.3022 6.82068 10.4316 8.69125 10.4316 10.9987C10.4316 13.3062 12.3022 15.1768 14.6097 15.1768Z" stroke="#F05922" stroke-width="2" stroke-linecap="round" stroke-linejoin="round"/>
</svg>
