<svg width="61" height="57" viewBox="0 0 61 57" fill="none" xmlns="http://www.w3.org/2000/svg">
<g filter="url(#filter0_d_870_17)">
<path d="M6 12C6 5.37258 11.3726 0 18 0H43C49.6274 0 55 5.37258 55 12V37C55 43.6274 49.6274 49 43 49H18C11.3726 49 6 43.6274 6 37V12Z" fill="url(#paint0_linear_870_17)"/>
<path d="M36.3125 19.8125H30.3125L28.8125 18.3125H24.3125C23.4875 18.3125 22.8125 18.9875 22.8125 19.8125V28.8125C22.8125 29.6375 23.4875 30.3125 24.3125 30.3125H36.3125C37.1375 30.3125 37.8125 29.6375 37.8125 28.8125V21.3125C37.8125 20.4875 37.1375 19.8125 36.3125 19.8125ZM31.9625 27.4625L29.8625 25.2125L30.7625 24.3125L31.9625 25.5125L34.6625 22.8125L35.5625 23.8625L31.9625 27.4625Z" fill="white"/>
</g>
<defs>
<filter id="filter0_d_870_17" x="0" y="-4" width="61" height="61" filterUnits="userSpaceOnUse" color-interpolation-filters="sRGB">
<feFlood flood-opacity="0" result="BackgroundImageFix"/>
<feColorMatrix in="SourceAlpha" type="matrix" values="0 0 0 0 0 0 0 0 0 0 0 0 0 0 0 0 0 0 127 0" result="hardAlpha"/>
<feOffset dy="2"/>
<feGaussianBlur stdDeviation="3"/>
<feComposite in2="hardAlpha" operator="out"/>
<feColorMatrix type="matrix" values="0 0 0 0 0.862745 0 0 0 0 0.133333 0 0 0 0 0.396078 0 0 0 0.36 0"/>
<feBlend mode="normal" in2="BackgroundImageFix" result="effect1_dropShadow_870_17"/>
<feBlend mode="normal" in="SourceGraphic" in2="effect1_dropShadow_870_17" result="shape"/>
</filter>
<linearGradient id="paint0_linear_870_17" x1="30.523" y1="48.9626" x2="30.523" y2="-0.0373636" gradientUnits="userSpaceOnUse">
<stop stop-color="#FB8E03"/>
<stop offset="1" stop-color="#FEA321"/>
</linearGradient>
</defs>
</svg>
