<svg width="20" height="23" viewBox="0 0 20 23" fill="none" xmlns="http://www.w3.org/2000/svg">
<path d="M13.9583 2.07H14.1667C14.0521 2.07 13.9583 1.9665 13.9583 1.84V2.07H6.04167V1.84C6.04167 1.9665 5.94792 2.07 5.83333 2.07H6.04167V4.14H4.16667V1.84C4.16667 0.825125 4.91406 0 5.83333 0H14.1667C15.0859 0 15.8333 0.825125 15.8333 1.84V4.14H13.9583V2.07ZM0.833334 4.14H19.1667C19.6276 4.14 20 4.55113 20 5.06V5.98C20 6.1065 19.9063 6.21 19.7917 6.21H18.2188L17.5755 21.2463C17.5339 22.2266 16.7995 23 15.9115 23H4.08854C3.19792 23 2.46615 22.2295 2.42448 21.2463L1.78125 6.21H0.208334C0.09375 6.21 0 6.1065 0 5.98V5.06C0 4.55113 0.372396 4.14 0.833334 4.14ZM4.28906 20.93H15.7109L16.3411 6.21H3.65886L4.28906 20.93Z" fill="#FF0000"/>
</svg>
