<svg width="56" height="32" viewBox="0 0 56 32" fill="none" xmlns="http://www.w3.org/2000/svg">
<path d="M55.7761 2.24136C55.492 1.60741 54.9485 1.10364 54.2645 0.840367C53.928 0.707426 53.5666 0.636912 53.2008 0.632812H39.2049C38.4625 0.632812 37.7505 0.906154 37.2255 1.3927C36.7006 1.87925 36.4057 2.53916 36.4057 3.22724C36.4057 3.91533 36.7006 4.57523 37.2255 5.06178C37.7505 5.54833 38.4625 5.82167 39.2049 5.82167H46.4548L30.8073 20.3245L21.598 11.7629C21.3378 11.5197 21.0282 11.3267 20.6871 11.195C20.3459 11.0633 19.9801 10.9955 19.6105 10.9955C19.241 10.9955 18.8752 11.0633 18.534 11.195C18.1929 11.3267 17.8833 11.5197 17.6231 11.7629L0.827995 27.3295C0.565632 27.5707 0.357388 27.8576 0.215277 28.1738C0.0731659 28.4899 0 28.829 0 29.1715C0 29.514 0.0731659 29.8531 0.215277 30.1693C0.357388 30.4854 0.565632 30.7724 0.827995 31.0136C1.08822 31.2567 1.39781 31.4498 1.73892 31.5815C2.08002 31.7132 2.44589 31.781 2.81542 31.781C3.18495 31.781 3.55081 31.7132 3.89192 31.5815C4.23303 31.4498 4.54262 31.2567 4.80284 31.0136L19.6105 17.2631L28.8199 25.8247C29.0801 26.0679 29.3897 26.2609 29.7308 26.3926C30.0719 26.5243 30.4378 26.5921 30.8073 26.5921C31.1768 26.5921 31.5427 26.5243 31.8838 26.3926C32.2249 26.2609 32.5345 26.0679 32.7947 25.8247L50.4016 9.47982V16.1994C50.4016 16.8875 50.6965 17.5474 51.2215 18.0339C51.7464 18.5205 52.4584 18.7938 53.2008 18.7938C53.9432 18.7938 54.6552 18.5205 55.1801 18.0339C55.7051 17.5474 56 16.8875 56 16.1994V3.22724C55.9956 2.88821 55.9195 2.55327 55.7761 2.24136Z" fill="#F05922"/>
</svg>
