<svg width="44" height="39" viewBox="0 0 44 39" fill="none" xmlns="http://www.w3.org/2000/svg">
<path fill-rule="evenodd" clip-rule="evenodd" d="M20.089 2.4188C21.9289 0.534714 26.5257 3.83031 20.089 8.07107C13.6523 3.83031 18.2491 0.534714 20.089 2.4188Z" fill="#F05922"/>
<path d="M36.2055 0L16.3341 29.2624C16.016 27.0612 14.806 24.9968 12.8163 23.6537C11.4504 22.7334 9.85995 22.2484 8.21959 22.2484C5.48774 22.2484 2.94301 23.5915 1.41492 25.8425C0.186209 27.6519 -0.262865 29.8345 0.148784 31.9798C0.560433 34.125 1.78914 35.9842 3.60414 37.2092C4.97007 38.1295 6.56053 38.6145 8.20088 38.6145C10.9327 38.6145 13.4775 37.2714 15.0056 35.0204L35.7377 4.4957C36.6857 3.10284 36.9103 0.478795 36.2055 0ZM8.20712 36.4754C6.99713 36.4754 5.81831 36.1148 4.81414 35.437C3.47316 34.5292 2.56254 33.1612 2.25693 31.5694C1.95131 29.9837 2.28187 28.3732 3.19249 27.0364C4.32141 25.3699 6.20501 24.3812 8.21959 24.3812C9.42959 24.3812 10.6084 24.7419 11.6126 25.4196C14.3819 27.2913 15.1116 31.0595 13.2342 33.8203C12.1053 35.4868 10.2217 36.4754 8.20712 36.4754Z" fill="#F05922"/>
<path d="M38.7627 25.8425C37.2346 23.5915 34.6898 22.2484 31.958 22.2484C30.3176 22.2484 28.7272 22.7334 27.3612 23.6537C25.3716 24.9968 24.1616 27.0612 23.8435 29.2624L3.96585 0C3.26106 0.478795 3.4856 3.10284 4.43364 4.48948L25.1658 35.0142C26.6939 37.2651 29.2386 38.6083 31.9704 38.6083C33.6108 38.6083 35.2013 38.1232 36.5672 37.203C38.3822 35.978 39.6109 34.1188 40.0226 31.9735C40.4404 29.8283 39.9914 27.6519 38.7627 25.8425ZM37.9206 31.5756C37.615 33.1612 36.7044 34.5354 35.3634 35.4432C34.353 36.1272 33.1804 36.4817 31.9704 36.4817C29.9496 36.4817 28.0723 35.4868 26.9371 33.8265C25.0597 31.0657 25.7895 27.2975 28.5588 25.4259C29.5692 24.7419 30.7417 24.3874 31.9517 24.3874C33.9726 24.3874 35.8499 25.3823 36.9788 27.0426C37.8957 28.3732 38.2263 29.9837 37.9206 31.5756Z" fill="#F05922"/>
<path d="M42.0434 39.0002C39.7669 39.0002 37.5402 38.2229 35.7627 36.8114C35.3011 36.4445 35.2263 35.773 35.5943 35.3128C35.9622 34.8527 36.6359 34.7781 37.0974 35.1449C38.5132 36.2704 40.2222 36.8674 42.0434 36.8674C42.6359 36.8674 43.1162 37.3461 43.1162 37.9369C43.11 38.5214 42.6359 39.0002 42.0434 39.0002Z" fill="#F05922"/>
<path d="M29.457 0L20.0888 13.7918L10.7207 0C10.0222 0.472577 10.2405 3.06553 11.1635 4.45839L20.0826 17.6035V17.5973L20.0888 17.6035L29.0079 4.45839C29.9372 3.06553 30.1618 0.472577 29.457 0Z" fill="black"/>
</svg>
