<svg width="139" height="38" viewBox="0 0 139 38" fill="none" xmlns="http://www.w3.org/2000/svg">
<path d="M16.5098 29.1592C15.6634 29.8786 14.7197 30.4329 13.6787 30.8223C12.6377 31.2031 11.5544 31.3936 10.4287 31.3936C9.56543 31.3936 8.73177 31.2793 7.92773 31.0508C7.13216 30.8307 6.38737 30.5176 5.69336 30.1113C4.99935 29.6966 4.36458 29.2057 3.78906 28.6387C3.21354 28.0632 2.72266 27.4284 2.31641 26.7344C1.91016 26.0319 1.59277 25.2786 1.36426 24.4746C1.14421 23.6706 1.03418 22.8369 1.03418 21.9736C1.03418 21.1104 1.14421 20.2809 1.36426 19.4854C1.59277 18.6898 1.91016 17.945 2.31641 17.251C2.72266 16.5485 3.21354 15.9137 3.78906 15.3467C4.36458 14.7712 4.99935 14.2803 5.69336 13.874C6.38737 13.4678 7.13216 13.1546 7.92773 12.9346C8.73177 12.7061 9.56543 12.5918 10.4287 12.5918C11.5544 12.5918 12.6377 12.7865 13.6787 13.1758C14.7197 13.5566 15.6634 14.1068 16.5098 14.8262L14.6055 18C14.0553 17.4414 13.4206 17.0055 12.7012 16.6924C11.9818 16.3708 11.2243 16.21 10.4287 16.21C9.63314 16.21 8.88411 16.3623 8.18164 16.667C7.48763 16.9717 6.87826 17.3864 6.35352 17.9111C5.82878 18.4274 5.41406 19.0368 5.10938 19.7393C4.80469 20.4333 4.65234 21.1781 4.65234 21.9736C4.65234 22.7777 4.80469 23.5309 5.10938 24.2334C5.41406 24.9359 5.82878 25.5495 6.35352 26.0742C6.87826 26.599 7.48763 27.0137 8.18164 27.3184C8.88411 27.623 9.63314 27.7754 10.4287 27.7754C10.8857 27.7754 11.3301 27.7204 11.7617 27.6104C12.1934 27.5003 12.6038 27.348 12.9932 27.1533V21.9736H16.5098V29.1592ZM22.959 16.4385V23.7256H26.6025C27.1019 23.7256 27.5716 23.6325 28.0117 23.4463C28.4518 23.2516 28.8369 22.9893 29.167 22.6592C29.4971 22.3291 29.7552 21.944 29.9414 21.5039C30.1361 21.0553 30.2334 20.5814 30.2334 20.082C30.2334 19.5827 30.1361 19.113 29.9414 18.6729C29.7552 18.2243 29.4971 17.835 29.167 17.5049C28.8369 17.1748 28.4518 16.9167 28.0117 16.7305C27.5716 16.5358 27.1019 16.4385 26.6025 16.4385H22.959ZM22.959 31H19.3154V12.7949H26.6025C27.2712 12.7949 27.9144 12.8838 28.5322 13.0615C29.1501 13.2308 29.7256 13.4762 30.2588 13.7979C30.8005 14.111 31.2913 14.4919 31.7314 14.9404C32.18 15.3805 32.5609 15.8714 32.874 16.4131C33.1956 16.9548 33.4411 17.5345 33.6104 18.1523C33.7881 18.7702 33.877 19.4134 33.877 20.082C33.877 20.7083 33.7965 21.3177 33.6357 21.9102C33.4834 22.5026 33.2591 23.0654 32.9629 23.5986C32.6751 24.1318 32.3197 24.6227 31.8965 25.0713C31.4733 25.5199 30.9993 25.9092 30.4746 26.2393L32.4932 31H28.6211L27.0342 27.3311L22.959 27.3564V31ZM94.8145 31H91.1836V18C91.1836 17.7461 91.1328 17.5091 91.0312 17.2891C90.9382 17.069 90.807 16.8786 90.6377 16.7178C90.4769 16.5485 90.2865 16.4173 90.0664 16.3242C89.8464 16.2311 89.6094 16.1846 89.3555 16.1846C89.1016 16.1846 88.8646 16.2311 88.6445 16.3242C88.4245 16.4173 88.2298 16.5485 88.0605 16.7178C87.8997 16.8786 87.7728 17.069 87.6797 17.2891C87.5866 17.5091 87.54 17.7461 87.54 18V31H83.8965V18C83.8965 17.7461 83.8499 17.5091 83.7568 17.2891C83.6637 17.069 83.5326 16.8786 83.3633 16.7178C83.2025 16.5485 83.012 16.4173 82.792 16.3242C82.5719 16.2311 82.335 16.1846 82.0811 16.1846C81.8271 16.1846 81.5902 16.2311 81.3701 16.3242C81.1501 16.4173 80.9554 16.5485 80.7861 16.7178C80.6253 16.8786 80.4984 17.069 80.4053 17.2891C80.3122 17.5091 80.2656 17.7461 80.2656 18V31H76.6221V18C76.6221 17.2467 76.7617 16.54 77.041 15.8799C77.3288 15.2113 77.7181 14.6315 78.209 14.1406C78.7083 13.6413 79.2881 13.252 79.9482 12.9727C80.6169 12.6849 81.3278 12.541 82.0811 12.541C82.7581 12.541 83.4098 12.6637 84.0361 12.9092C84.6624 13.1462 85.2253 13.4932 85.7246 13.9502C86.224 13.4932 86.7826 13.1462 87.4004 12.9092C88.0267 12.6637 88.6784 12.541 89.3555 12.541C90.1087 12.541 90.8154 12.6849 91.4756 12.9727C92.1442 13.252 92.724 13.6413 93.2148 14.1406C93.7142 14.6315 94.1035 15.2113 94.3828 15.8799C94.6706 16.54 94.8145 17.2467 94.8145 18V31ZM101.721 31H98.0771V12.7949H101.721V31ZM119.672 31H115.774L108.754 19.0156V31H105.11V12.7949H109.008L116.028 24.792V12.7949H119.672V31ZM137.547 29.1592C136.701 29.8786 135.757 30.4329 134.716 30.8223C133.675 31.2031 132.591 31.3936 131.466 31.3936C130.603 31.3936 129.769 31.2793 128.965 31.0508C128.169 30.8307 127.424 30.5176 126.73 30.1113C126.036 29.6966 125.402 29.2057 124.826 28.6387C124.251 28.0632 123.76 27.4284 123.354 26.7344C122.947 26.0319 122.63 25.2786 122.401 24.4746C122.181 23.6706 122.071 22.8369 122.071 21.9736C122.071 21.1104 122.181 20.2809 122.401 19.4854C122.63 18.6898 122.947 17.945 123.354 17.251C123.76 16.5485 124.251 15.9137 124.826 15.3467C125.402 14.7712 126.036 14.2803 126.73 13.874C127.424 13.4678 128.169 13.1546 128.965 12.9346C129.769 12.7061 130.603 12.5918 131.466 12.5918C132.591 12.5918 133.675 12.7865 134.716 13.1758C135.757 13.5566 136.701 14.1068 137.547 14.8262L135.643 18C135.092 17.4414 134.458 17.0055 133.738 16.6924C133.019 16.3708 132.261 16.21 131.466 16.21C130.67 16.21 129.921 16.3623 129.219 16.667C128.525 16.9717 127.915 17.3864 127.391 17.9111C126.866 18.4274 126.451 19.0368 126.146 19.7393C125.842 20.4333 125.689 21.1781 125.689 21.9736C125.689 22.7777 125.842 23.5309 126.146 24.2334C126.451 24.9359 126.866 25.5495 127.391 26.0742C127.915 26.599 128.525 27.0137 129.219 27.3184C129.921 27.623 130.67 27.7754 131.466 27.7754C131.923 27.7754 132.367 27.7204 132.799 27.6104C133.23 27.5003 133.641 27.348 134.03 27.1533V21.9736H137.547V29.1592Z" fill="#F05922"/>
<path d="M54.1133 21.9736C54.1133 22.8369 53.999 23.6706 53.7705 24.4746C53.5505 25.2702 53.2373 26.0192 52.8311 26.7217C52.4248 27.4157 51.9339 28.0505 51.3584 28.626C50.7829 29.2015 50.1481 29.6966 49.4541 30.1113C48.7601 30.5176 48.0111 30.8307 47.207 31.0508C46.403 31.2793 45.5693 31.3936 44.7061 31.3936C43.8428 31.3936 43.0091 31.2793 42.2051 31.0508C41.4095 30.8307 40.6605 30.5176 39.958 30.1113C39.264 29.6966 38.6292 29.2015 38.0537 28.626C37.4782 28.0505 36.9831 27.4157 36.5684 26.7217C36.1621 26.0192 35.8447 25.2702 35.6162 24.4746C35.3962 23.6706 35.2861 22.8369 35.2861 21.9736C35.2861 21.1104 35.3962 20.2767 35.6162 19.4727C35.8447 18.6686 36.1621 17.9196 36.5684 17.2256C36.9831 16.5316 37.4782 15.8968 38.0537 15.3213C38.6292 14.7458 39.264 14.2549 39.958 13.8486C40.6605 13.4424 41.4095 13.1292 42.2051 12.9092C43.0091 12.6807 43.8428 12.5664 44.7061 12.5664C45.5693 12.5664 46.403 12.6807 47.207 12.9092C48.0111 13.1292 48.7601 13.4424 49.4541 13.8486C50.1481 14.2549 50.7829 14.7458 51.3584 15.3213C51.9339 15.8968 52.4248 16.5316 52.8311 17.2256C53.2373 17.9196 53.5505 18.6686 53.7705 19.4727C53.999 20.2767 54.1133 21.1104 54.1133 21.9736ZM50.4951 21.9736C50.4951 21.1781 50.3428 20.429 50.0381 19.7266C49.7334 19.0156 49.3187 18.402 48.7939 17.8857C48.2777 17.361 47.6641 16.9463 46.9531 16.6416C46.2507 16.3369 45.5016 16.1846 44.7061 16.1846C43.902 16.1846 43.1488 16.3369 42.4463 16.6416C41.7438 16.9463 41.1302 17.361 40.6055 17.8857C40.0807 18.402 39.666 19.0156 39.3613 19.7266C39.0566 20.429 38.9043 21.1781 38.9043 21.9736C38.9043 22.7692 39.0566 23.5182 39.3613 24.2207C39.666 24.9147 40.0807 25.5241 40.6055 26.0488C41.1302 26.5736 41.7438 26.9883 42.4463 27.293C43.1488 27.5977 43.902 27.75 44.7061 27.75C45.5016 27.75 46.2507 27.5977 46.9531 27.293C47.6641 26.9883 48.2777 26.5736 48.7939 26.0488C49.3187 25.5241 49.7334 24.9147 50.0381 24.2207C50.3428 23.5182 50.4951 22.7692 50.4951 21.9736ZM74.3496 21.9736C74.3496 22.8369 74.2354 23.6706 74.0068 24.4746C73.7868 25.2702 73.4736 26.0192 73.0674 26.7217C72.6611 27.4157 72.1702 28.0505 71.5947 28.626C71.0192 29.2015 70.3844 29.6966 69.6904 30.1113C68.9964 30.5176 68.2474 30.8307 67.4434 31.0508C66.6393 31.2793 65.8057 31.3936 64.9424 31.3936C64.0791 31.3936 63.2454 31.2793 62.4414 31.0508C61.6458 30.8307 60.8968 30.5176 60.1943 30.1113C59.5003 29.6966 58.8656 29.2015 58.29 28.626C57.7145 28.0505 57.2194 27.4157 56.8047 26.7217C56.3984 26.0192 56.0811 25.2702 55.8525 24.4746C55.6325 23.6706 55.5225 22.8369 55.5225 21.9736C55.5225 21.1104 55.6325 20.2767 55.8525 19.4727C56.0811 18.6686 56.3984 17.9196 56.8047 17.2256C57.2194 16.5316 57.7145 15.8968 58.29 15.3213C58.8656 14.7458 59.5003 14.2549 60.1943 13.8486C60.8968 13.4424 61.6458 13.1292 62.4414 12.9092C63.2454 12.6807 64.0791 12.5664 64.9424 12.5664C65.8057 12.5664 66.6393 12.6807 67.4434 12.9092C68.2474 13.1292 68.9964 13.4424 69.6904 13.8486C70.3844 14.2549 71.0192 14.7458 71.5947 15.3213C72.1702 15.8968 72.6611 16.5316 73.0674 17.2256C73.4736 17.9196 73.7868 18.6686 74.0068 19.4727C74.2354 20.2767 74.3496 21.1104 74.3496 21.9736ZM70.7314 21.9736C70.7314 21.1781 70.5791 20.429 70.2744 19.7266C69.9697 19.0156 69.555 18.402 69.0303 17.8857C68.514 17.361 67.9004 16.9463 67.1895 16.6416C66.487 16.3369 65.738 16.1846 64.9424 16.1846C64.1383 16.1846 63.3851 16.3369 62.6826 16.6416C61.9801 16.9463 61.3665 17.361 60.8418 17.8857C60.3171 18.402 59.9023 19.0156 59.5977 19.7266C59.293 20.429 59.1406 21.1781 59.1406 21.9736C59.1406 22.7692 59.293 23.5182 59.5977 24.2207C59.9023 24.9147 60.3171 25.5241 60.8418 26.0488C61.3665 26.5736 61.9801 26.9883 62.6826 27.293C63.3851 27.5977 64.1383 27.75 64.9424 27.75C65.738 27.75 66.487 27.5977 67.1895 27.293C67.9004 26.9883 68.514 26.5736 69.0303 26.0488C69.555 25.5241 69.9697 24.9147 70.2744 24.2207C70.5791 23.5182 70.7314 22.7692 70.7314 21.9736Z" fill="#343434"/>
<path fill-rule="evenodd" clip-rule="evenodd" d="M100 0.82134C102.774 -2.03011 109.71 2.95962 100 9.37569C90.2908 2.96024 97.2263 -2.03011 100 0.82134Z" fill="#F05922"/>
<path fill-rule="evenodd" clip-rule="evenodd" d="M44.9998 20.4927C46.664 18.7821 50.8248 21.7756 44.9998 25.6248C39.1748 21.7759 43.3356 18.7821 44.9998 20.4927Z" fill="#F05922"/>
<path fill-rule="evenodd" clip-rule="evenodd" d="M64.9998 20.4927C66.664 18.7821 70.8248 21.7756 64.9998 25.6248C59.1748 21.7759 63.3356 18.7821 64.9998 20.4927Z" fill="#F05922"/>
</svg>
