<svg width="49" height="38" viewBox="0 0 49 38" fill="none" xmlns="http://www.w3.org/2000/svg">
<rect x="48.5" y="1.16406" width="36.3333" height="47" rx="5.5" transform="rotate(90 48.5 1.16406)" fill="url(#paint0_linear_108_1760)" stroke="#737373"/>
<line x1="32.168" y1="0.664063" x2="32.168" y2="36.8994" stroke="#737373"/>
<line x1="49" y1="9.94922" x2="31.6667" y2="9.94922" stroke="#737373"/>
<line x1="49" y1="19.832" x2="31.6667" y2="19.832" stroke="#737373"/>
<line x1="49" y1="29.1641" x2="31.6667" y2="29.1641" stroke="#737373"/>
<line x1="18.332" y1="19.832" x2="0.998697" y2="19.832" stroke="#737373"/>
<line x1="18.332" y1="29.166" x2="2.33203" y2="29.166" stroke="#737373"/>
<path d="M14.332 10.498C16.265 10.498 17.832 12.0651 17.832 13.998L17.832 37.498L5.9987 37.498C3.51341 37.498 1.4987 35.4833 1.4987 32.998L1.4987 10.498L14.332 10.498Z" stroke="#737373"/>
<defs>
<linearGradient id="paint0_linear_108_1760" x1="85.202" y1="0.664061" x2="45.2934" y2="40.8392" gradientUnits="userSpaceOnUse">
<stop stop-color="#888888"/>
<stop offset="1" stop-color="#888888" stop-opacity="0"/>
</linearGradient>
</defs>
</svg>
