<svg width="131" height="1248" viewBox="0 0 131 1248" fill="none" xmlns="http://www.w3.org/2000/svg">
<path d="M115.256 1140.56L116.78 1139.26L116.181 1138.56L115.256 1138.56L115.256 1140.56ZM126.77 1160.16L128.648 1159.47L128.645 1159.46L128.643 1159.45L126.77 1160.16ZM128.352 1199.97L126.428 1199.42L126.424 1199.44L128.352 1199.97ZM121.848 1215.44L123.564 1216.46L123.569 1216.46L123.574 1216.45L121.848 1215.44ZM111.652 1228.62L113.067 1230.04L113.072 1230.03L113.077 1230.03L111.652 1228.62ZM98.4687 1238.82L99.47 1240.55L99.4791 1240.54L98.4687 1238.82ZM82.8242 1245.41L83.3522 1247.34L83.3616 1247.34L83.371 1247.33L82.8242 1245.41ZM48.2832 1245.41L47.7311 1247.33L47.7405 1247.33L47.75 1247.34L48.2832 1245.41ZM32.8145 1238.82L33.8248 1237.09L33.8157 1237.09L32.8145 1238.82ZM19.6309 1228.62L21.0555 1227.22L21.0503 1227.21L21.0451 1227.21L19.6309 1228.62ZM2.93164 1199.97L4.85931 1199.44L4.85545 1199.42L2.93164 1199.97ZM4.60156 1160.16L6.47484 1160.86L6.47735 1160.85L6.4798 1160.84L4.60156 1160.16ZM16.0273 1140.56L17.0563 1138.84L15.6019 1137.97L14.5035 1139.26L16.0273 1140.56ZM38 1153.74L39.4034 1155.16L41.2429 1153.35L39.029 1152.02L38 1153.74ZM28.9473 1166.92L30.7731 1167.74L30.7771 1167.73L30.7811 1167.72L28.9473 1166.92ZM28.7715 1198.21L26.9366 1199.01L26.9402 1199.02L28.7715 1198.21ZM37.3848 1210.87L38.8104 1209.47L38.8047 1209.46L38.799 1209.45L37.3848 1210.87ZM50.041 1219.48L50.845 1217.65L50.8369 1217.65L50.041 1219.48ZM102.512 1198.21L104.343 1199.02L104.347 1199.01L102.512 1198.21ZM101.369 1164.9L103.158 1164.01L102.605 1162.9L101.369 1162.9L101.369 1164.9ZM65.5098 1164.9L63.5098 1164.9L63.5098 1166.9L65.5098 1166.9L65.5098 1164.9ZM65.5098 1140.56L65.5098 1138.56L63.5098 1138.56L63.5098 1140.56L65.5098 1140.56ZM113.732 1141.85C118.562 1147.53 122.282 1153.87 124.896 1160.86L128.643 1159.45C125.866 1152.03 121.91 1145.3 116.78 1139.26L113.732 1141.85ZM124.891 1160.84C127.446 1167.83 128.725 1175.09 128.725 1182.66L132.725 1182.66C132.725 1174.63 131.366 1166.9 128.648 1159.47L124.891 1160.84ZM128.725 1182.66C128.725 1188.45 127.958 1194.04 126.428 1199.42L130.275 1200.52C131.91 1194.77 132.725 1188.81 132.725 1182.66L128.725 1182.66ZM126.424 1199.44C124.945 1204.78 122.844 1209.78 120.122 1214.43L123.574 1216.45C126.476 1211.49 128.711 1206.17 130.279 1200.5L126.424 1199.44ZM120.131 1214.41C117.342 1219.08 114.041 1223.35 110.228 1227.22L113.077 1230.03C117.115 1225.93 120.611 1221.41 123.564 1216.46L120.131 1214.41ZM110.238 1227.21C106.373 1231.07 102.114 1234.37 97.4584 1237.09L99.4791 1240.54C104.433 1237.64 108.963 1234.14 113.067 1230.04L110.238 1227.21ZM97.4675 1237.09C92.7514 1239.81 87.6898 1241.95 82.2775 1243.49L83.371 1247.33C89.0915 1245.71 94.4595 1243.45 99.47 1240.55L97.4675 1237.09ZM82.2963 1243.48C76.9079 1244.95 71.3143 1245.69 65.5098 1245.69L65.5098 1249.69C71.6583 1249.69 77.6077 1248.91 83.3522 1247.34L82.2963 1243.48ZM65.5098 1245.69C59.7051 1245.69 54.1427 1244.95 48.8164 1243.48L47.75 1247.34C53.4393 1248.91 59.3613 1249.69 65.5098 1249.69L65.5098 1245.69ZM48.8353 1243.49C43.4831 1241.95 38.4814 1239.82 33.8248 1237.09L31.8041 1240.54C36.7569 1243.44 42.0676 1245.7 47.7311 1247.33L48.8353 1243.49ZM33.8157 1237.09C29.1069 1234.36 24.8549 1231.07 21.0555 1227.22L18.2062 1230.03C22.2584 1234.14 26.7954 1237.65 31.8132 1240.55L33.8157 1237.09ZM21.0451 1227.21C17.18 1223.34 13.8868 1219.08 11.1616 1214.43L7.70952 1216.45C10.6093 1221.4 14.113 1225.93 18.2166 1230.04L21.0451 1227.21ZM11.1616 1214.43C8.43897 1209.78 6.3377 1204.78 4.85926 1199.44L1.00401 1200.5C2.57245 1206.17 4.80712 1211.49 7.70952 1216.45L11.1616 1214.43ZM4.85545 1199.42C3.32561 1194.04 2.55859 1188.45 2.55859 1182.66L-1.44141 1182.66C-1.44141 1188.81 -0.626395 1194.77 1.00783 1200.52L4.85545 1199.42ZM2.55859 1182.66C2.55859 1175.1 3.86441 1167.84 6.47484 1160.86L2.72828 1159.45C-0.0519218 1166.89 -1.44141 1174.63 -1.44141 1182.66L2.55859 1182.66ZM6.4798 1160.84C9.03511 1153.86 12.7236 1147.53 17.5512 1141.85L14.5035 1139.26C9.37017 1145.3 5.44145 1152.04 2.72331 1159.47L6.4798 1160.84ZM14.9983 1142.27L36.971 1155.45L39.029 1152.02L17.0563 1138.84L14.9983 1142.27ZM36.5966 1152.31C32.5471 1156.3 29.3834 1160.91 27.1135 1166.12L30.7811 1167.72C32.847 1162.97 35.7186 1158.79 39.4034 1155.16L36.5966 1152.31ZM27.1214 1166.11C24.7789 1171.35 23.6074 1176.87 23.6074 1182.66L27.6074 1182.66C27.6074 1177.43 28.6625 1172.46 30.7731 1167.74L27.1214 1166.11ZM23.6074 1182.66C23.6074 1188.43 24.7141 1193.88 26.9366 1199.01L30.6063 1197.42C28.6102 1192.81 27.6074 1187.9 27.6074 1182.66L23.6074 1182.66ZM26.9402 1199.02C29.1473 1204.04 32.1582 1208.47 35.9705 1212.28L38.799 1209.45C35.3457 1206 32.6144 1201.99 30.6028 1197.41L26.9402 1199.02ZM35.9591 1212.27C39.7208 1216.09 44.1558 1219.11 49.2452 1221.32L50.8369 1217.65C46.1997 1215.64 42.1972 1212.91 38.8104 1209.47L35.9591 1212.27ZM49.237 1221.31C54.3077 1223.54 59.7392 1224.65 65.5098 1224.65L65.5098 1220.65C60.2647 1220.65 55.3837 1219.64 50.845 1217.65L49.237 1221.31ZM65.5098 1224.65C71.336 1224.65 76.8232 1223.54 81.9501 1221.32L80.3585 1217.65C75.7589 1219.64 70.8164 1220.65 65.5098 1220.65L65.5098 1224.65ZM81.9501 1221.32C87.0367 1219.11 91.4963 1216.1 95.3127 1212.28L92.4842 1209.45C89.0349 1212.9 84.9985 1215.63 80.3585 1217.65L81.9501 1221.32ZM95.3127 1212.28C99.125 1208.47 102.136 1204.04 104.343 1199.02L100.68 1197.41C98.6688 1201.99 95.9375 1206 92.4842 1209.45L95.3127 1212.28ZM104.347 1199.01C106.569 1193.88 107.676 1188.43 107.676 1182.66L103.676 1182.66C103.676 1187.9 102.673 1192.81 100.677 1197.42L104.347 1199.01ZM107.676 1182.66C107.676 1179.33 107.275 1176.09 106.471 1172.93L102.595 1173.92C103.315 1176.74 103.676 1179.65 103.676 1182.66L107.676 1182.66ZM106.471 1172.93C105.675 1169.81 104.571 1166.83 103.158 1164.01L99.5803 1165.8C100.863 1168.36 101.868 1171.07 102.595 1173.92L106.471 1172.93ZM101.369 1162.9L65.5098 1162.9L65.5098 1166.9L101.369 1166.9L101.369 1162.9ZM67.5098 1164.9L67.5098 1140.56L63.5098 1140.56L63.5098 1164.9L67.5098 1164.9ZM65.5098 1142.56L115.256 1142.56L115.256 1138.56L65.5098 1138.56L65.5098 1142.56ZM27.1894 1052.71L25.1894 1052.71L25.1894 1054.71L27.1894 1054.71L27.1894 1052.71ZM77.6387 1052.71L77.6387 1054.71L79.6387 1054.71L79.6387 1052.71L77.6387 1052.71ZM75.7051 1017.73L77.547 1016.95L77.5407 1016.93L77.5341 1016.92L75.7051 1017.73ZM62.2578 1004.37L61.4616 1006.2L61.4701 1006.21L61.4785 1006.21L62.2578 1004.37ZM42.6582 1004.37L43.4249 1006.21L43.4462 1006.21L43.4672 1006.2L42.6582 1004.37ZM29.2109 1017.73L31.04 1018.54L31.0466 1018.52L31.0529 1018.51L29.2109 1017.73ZM128 1052.71L130 1052.71L130 1050.71L128 1050.71L128 1052.71ZM128 1077.93L128 1079.93L130 1079.93L130 1077.93L128 1077.93ZM1.96484 1077.93L-0.0351639 1077.93L-0.0351638 1079.93L1.96484 1079.93L1.96484 1077.93ZM3.81054 1014.12L5.73259 1014.68L5.7361 1014.66L5.73945 1014.65L3.81054 1014.12ZM8.90819 1002.17L10.6208 1003.2L10.6304 1003.19L10.6397 1003.17L8.90819 1002.17ZM16.8183 991.975L18.219 993.402L18.2326 993.389L18.246 993.375L16.8183 991.975ZM27.0137 984.064L28.0147 985.796L28.0247 985.79L28.0347 985.784L27.0137 984.064ZM39.0547 978.967L39.5831 980.896L39.5954 980.892L39.6076 980.889L39.0547 978.967ZM65.0703 978.791L64.5464 980.721L64.5593 980.725L64.5722 980.728L65.0703 978.791ZM76.7598 983.449L75.7885 985.198L75.7991 985.203L75.8099 985.209L76.7598 983.449ZM95.041 1000.68L93.3481 1001.74L94.2545 1003.18L95.8217 1002.52L95.041 1000.68ZM128 986.701L130 986.701L130 983.681L127.219 984.86L128 986.701ZM128 1013.51L128.794 1015.34L130 1014.82L130 1013.51L128 1013.51ZM102.6 1024.49L101.806 1022.66L100.591 1023.18L100.6 1024.51L102.6 1024.49ZM102.775 1052.71L100.775 1052.72L100.788 1054.71L102.775 1054.71L102.775 1052.71ZM27.1894 1054.71L77.6387 1054.71L77.6387 1050.71L27.1894 1050.71L27.1894 1054.71ZM79.6387 1052.71L79.6387 1027.48L75.6387 1027.48L75.6387 1052.71L79.6387 1052.71ZM79.6387 1027.48C79.6387 1023.77 78.9451 1020.25 77.547 1016.95L73.8631 1018.51C75.0432 1021.3 75.6387 1024.28 75.6387 1027.48L79.6387 1027.48ZM77.5341 1016.92C76.0898 1013.65 74.1351 1010.78 71.6701 1008.31L68.8416 1011.14C70.947 1013.25 72.625 1015.71 73.876 1018.54L77.5341 1016.92ZM71.6701 1008.31C69.1984 1005.84 66.3154 1003.91 63.0371 1002.53L61.4785 1006.21C64.2939 1007.4 66.743 1009.04 68.8416 1011.14L71.6701 1008.31ZM63.054 1002.53C59.6918 1001.07 56.139 1000.35 52.4141 1000.35L52.4141 1004.35C55.6031 1004.35 58.6128 1004.97 61.4616 1006.2L63.054 1002.53ZM52.4141 1000.35C48.6891 1000.35 45.1605 1001.07 41.8492 1002.54L43.4672 1006.2C46.2496 1004.97 49.2249 1004.35 52.4141 1004.35L52.4141 1000.35ZM41.8914 1002.52C38.5538 1003.91 35.636 1005.84 33.158 1008.31L35.9865 1011.14C38.0788 1009.05 40.5516 1007.41 43.4249 1006.21L41.8914 1002.52ZM33.158 1008.31C30.6864 1010.79 28.756 1013.67 27.369 1016.95L31.0529 1018.51C32.244 1015.69 33.8878 1013.24 35.9865 1011.14L33.158 1008.31ZM27.3819 1016.92C25.9172 1020.23 25.1894 1023.76 25.1894 1027.48L29.1894 1027.48C29.1894 1024.29 29.8093 1021.32 31.04 1018.54L27.3819 1016.92ZM25.1894 1027.48L25.1894 1052.71L29.1894 1052.71L29.1894 1027.48L25.1894 1027.48ZM126 1052.71L126 1077.93L130 1077.93L130 1052.71L126 1052.71ZM128 1075.93L1.96484 1075.93L1.96484 1079.93L128 1079.93L128 1075.93ZM3.96484 1077.93L3.96483 1027.48L-0.0351661 1027.48L-0.0351639 1077.93L3.96484 1077.93ZM3.96483 1027.48C3.96483 1023.03 4.55587 1018.77 5.73259 1014.68L1.88849 1013.57C0.604268 1018.03 -0.0351663 1022.67 -0.0351661 1027.48L3.96483 1027.48ZM5.73945 1014.65C6.86416 1010.55 8.49188 1006.73 10.6208 1003.2L7.19561 1001.14C4.87138 1004.99 3.10067 1009.15 1.88162 1013.59L5.73945 1014.65ZM10.6397 1003.17C12.7168 999.578 15.242 996.323 18.219 993.402L15.4177 990.547C12.1837 993.72 9.43557 997.262 7.17672 1001.17L10.6397 1003.17ZM18.246 993.375C21.1668 990.398 24.4219 987.873 28.0147 985.796L26.0127 982.333C22.1055 984.592 18.5636 987.34 15.3907 990.574L18.246 993.375ZM28.0347 985.784C31.628 983.651 35.4757 982.021 39.5831 980.896L38.5262 977.038C34.079 978.256 29.8993 980.025 25.9926 982.345L28.0347 985.784ZM39.6076 980.889C43.6981 979.712 47.9647 979.121 52.4141 979.121L52.4141 975.121C47.6056 975.121 42.9659 975.761 38.5018 977.045L39.6076 980.889ZM52.4141 979.121C56.5766 979.121 60.6191 979.655 64.5464 980.721L65.5942 976.861C61.3184 975.7 56.9233 975.121 52.4141 975.121L52.4141 979.121ZM64.5722 980.728C68.5091 981.74 72.2465 983.23 75.7885 985.198L77.731 981.701C73.8902 979.567 69.8346 977.951 65.5684 976.854L64.5722 980.728ZM75.8099 985.209C79.345 987.117 82.6018 989.475 85.5826 992.287L88.3275 989.377C85.0974 986.33 81.5573 983.766 77.7096 981.689L75.8099 985.209ZM85.5826 992.287C88.5646 995.1 91.1524 998.25 93.3481 1001.74L96.7339 999.611C94.3593 995.836 91.5565 992.423 88.3275 989.377L85.5826 992.287ZM95.8217 1002.52L128.781 988.543L127.219 984.86L94.2603 998.834L95.8217 1002.52ZM126 986.701L126 1013.51L130 1013.51L130 986.701L126 986.701ZM127.206 1011.67L101.806 1022.66L103.394 1026.33L128.794 1015.34L127.206 1011.67ZM100.6 1024.51L100.775 1052.72L104.775 1052.69L104.6 1024.48L100.6 1024.51ZM102.775 1054.71L128 1054.71L128 1050.71L102.775 1050.71L102.775 1054.71ZM82.8242 796.196L82.2774 798.12L82.291 798.124L82.8242 796.196ZM98.3808 802.7L99.3912 800.974L99.3821 800.969L98.3808 802.7ZM121.848 826.079L123.574 825.069L123.569 825.061L123.564 825.053L121.848 826.079ZM128.352 841.636L126.422 842.164L126.425 842.173L126.428 842.183L128.352 841.636ZM128.352 876.265L126.428 875.718L126.424 875.732L128.352 876.265ZM121.848 891.821L123.564 892.847L123.572 892.835L123.579 892.823L121.848 891.821ZM98.3808 915.288L99.3821 917.02L99.3945 917.012L99.4068 917.005L98.3808 915.288ZM82.8242 921.88L83.3522 923.809L83.3643 923.806L83.3763 923.802L82.8242 921.88ZM48.1953 921.88L47.6485 923.804L47.6579 923.807L47.6673 923.809L48.1953 921.88ZM32.6387 915.288L31.6127 917.005L31.6205 917.01L31.6283 917.014L32.6387 915.288ZM9.25975 891.822L7.5284 892.823L7.53372 892.832L9.25975 891.822ZM2.75584 876.265L4.68351 875.732L4.67965 875.718L2.75584 876.265ZM2.75584 841.636L4.67965 842.183L4.68232 842.173L4.6849 842.164L2.75584 841.636ZM48.1953 796.196L48.7232 798.126L48.7327 798.123L48.7421 798.12L48.1953 796.196ZM49.9531 822.036L50.741 823.875L50.7489 823.871L49.9531 822.036ZM37.209 830.65L38.6116 832.075L38.6232 832.064L38.6346 832.052L37.209 830.65ZM28.5957 843.394L30.4305 844.19L30.434 844.182L28.5957 843.394ZM37.209 887.339L38.6346 885.936L38.6289 885.931L38.6232 885.925L37.209 887.339ZM49.9531 895.952L50.749 894.117L50.741 894.114L49.9531 895.952ZM81.0664 895.952L81.8622 897.787L81.8704 897.784L81.0664 895.952ZM102.336 843.394L100.498 844.182L100.501 844.19L102.336 843.394ZM93.7226 830.65L92.3084 832.064L92.3142 832.07L92.32 832.075L93.7226 830.65ZM81.0664 822.036L81.8704 820.205L81.8622 820.202L81.0664 822.036ZM65.5097 795.823C71.3075 795.823 76.8947 796.59 82.2774 798.12L83.371 794.273C77.6209 792.638 71.6651 791.823 65.5097 791.823L65.5097 795.823ZM82.291 798.124C87.638 799.603 92.6659 801.706 97.3796 804.432L99.3821 800.969C94.3692 798.07 89.0261 795.837 83.3574 794.269L82.291 798.124ZM97.3705 804.426C102.026 807.152 106.285 810.445 110.15 814.31L112.979 811.481C108.875 807.378 104.345 803.874 99.3912 800.974L97.3705 804.426ZM110.15 814.31C114.019 818.179 117.345 822.443 120.131 827.105L123.564 825.053C120.608 820.106 117.079 815.582 112.979 811.481L110.15 814.31ZM120.122 827.09C122.842 831.738 124.944 836.76 126.422 842.164L130.281 841.108C128.713 835.379 126.478 830.03 123.574 825.069L120.122 827.09ZM126.428 842.183C127.958 847.565 128.725 853.153 128.725 858.95L132.725 858.95C132.725 852.795 131.91 846.839 130.275 841.089L126.428 842.183ZM128.725 858.95C128.725 864.748 127.958 870.335 126.428 875.718L130.275 876.812C131.91 871.062 132.725 865.106 132.725 858.95L128.725 858.95ZM126.424 875.732C124.945 881.079 122.842 886.107 120.116 890.82L123.579 892.823C126.478 887.81 128.711 882.467 130.279 876.798L126.424 875.732ZM120.131 890.796C117.345 895.458 114.019 899.722 110.15 903.591L112.979 906.419C117.079 902.319 120.608 897.794 123.564 892.847L120.131 890.796ZM110.15 903.591C106.282 907.46 102.017 910.785 97.3549 913.571L99.4068 917.005C104.354 914.049 108.879 910.519 112.979 906.419L110.15 903.591ZM97.3796 913.557C92.6605 916.286 87.6261 918.42 82.2721 919.958L83.3763 923.802C89.0379 922.176 94.3746 919.915 99.3821 917.02L97.3796 913.557ZM82.2963 919.951C76.9079 921.426 71.3143 922.165 65.5098 922.165L65.5098 926.165C71.6583 926.165 77.6077 925.381 83.3522 923.809L82.2963 919.951ZM65.5098 922.165C59.7052 922.165 54.1116 921.426 48.7233 919.951L47.6673 923.809C53.4118 925.381 59.3612 926.165 65.5098 926.165L65.5098 922.165ZM48.7421 919.956C43.3315 918.419 38.3025 916.286 33.649 913.562L31.6283 917.014C36.5842 919.915 41.9263 922.178 47.6485 923.804L48.7421 919.956ZM33.6646 913.571C29.0022 910.785 24.738 907.46 20.8693 903.591L18.0408 906.419C22.1409 910.519 26.6657 914.049 31.6127 917.005L33.6646 913.571ZM20.8693 903.591C17.0042 899.726 13.711 895.467 10.9858 890.811L7.53372 892.832C10.4335 897.786 13.9372 902.316 18.0408 906.419L20.8693 903.591ZM10.9911 890.82C8.26509 886.107 6.1624 881.079 4.68347 875.732L0.828219 876.798C2.39616 882.467 4.62941 887.81 7.52842 892.823L10.9911 890.82ZM4.67965 875.718C3.14981 870.335 2.3828 864.748 2.3828 858.95L-1.6172 858.95C-1.6172 865.106 -0.80219 871.062 0.832034 876.812L4.67965 875.718ZM2.3828 858.95C2.3828 853.153 3.14981 847.565 4.67965 842.183L0.832032 841.089C-0.802191 846.839 -1.6172 852.795 -1.6172 858.95L2.3828 858.95ZM4.6849 842.164C6.16378 836.76 8.26498 831.738 10.9858 827.09L7.53372 825.069C4.62951 830.03 2.39477 835.379 0.826783 841.108L4.6849 842.164ZM10.9858 827.09C13.711 822.434 17.0042 818.175 20.8693 814.31L18.0408 811.482C13.9372 815.585 10.4335 820.115 7.53372 825.069L10.9858 827.09ZM20.8693 814.31C24.7344 810.445 28.9935 807.152 33.649 804.426L31.6283 800.974C26.6744 803.874 22.1445 807.378 18.0408 811.482L20.8693 814.31ZM33.649 804.426C38.297 801.706 43.3196 799.604 48.7232 798.126L47.6673 794.267C41.9381 795.835 36.5896 798.07 31.6283 800.974L33.649 804.426ZM48.7421 798.12C54.1248 796.59 59.712 795.823 65.5097 795.823L65.5097 791.823C59.3544 791.823 53.3986 792.638 47.6485 794.273L48.7421 798.12ZM65.5097 816.872C59.7391 816.872 54.2816 817.979 49.1573 820.202L50.7489 823.871C55.3512 821.875 60.2648 820.872 65.5097 820.872L65.5097 816.872ZM49.1653 820.198C44.0168 822.405 39.549 825.42 35.7833 829.247L38.6346 832.052C42.0174 828.614 46.0457 825.887 50.7409 823.875L49.1653 820.198ZM35.8063 829.224C31.9789 832.99 28.9639 837.457 26.7574 842.606L30.434 844.182C32.4462 839.486 35.1734 835.458 38.6116 832.075L35.8063 829.224ZM26.7608 842.598C24.5383 847.722 23.4316 853.18 23.4316 858.95L27.4316 858.95C27.4316 853.705 28.4344 848.792 30.4305 844.19L26.7608 842.598ZM23.4316 858.95C23.4316 864.777 24.5371 870.264 26.7608 875.391L30.4305 873.799C28.4355 869.199 27.4316 864.257 27.4316 858.95L23.4316 858.95ZM26.7608 875.391C28.9671 880.477 31.9784 884.937 35.7948 888.753L38.6232 885.925C35.1739 882.476 32.4431 878.439 30.4305 873.799L26.7608 875.391ZM35.7833 888.742C39.549 892.569 44.0168 895.584 49.1653 897.791L50.741 894.114C46.0457 892.102 42.0174 889.375 38.6346 885.936L35.7833 888.742ZM49.1573 897.787C54.2816 900.01 59.7391 901.116 65.5098 901.116L65.5098 897.116C60.2648 897.116 55.3512 896.114 50.7489 894.118L49.1573 897.787ZM65.5098 901.116C71.2804 901.116 76.7379 900.01 81.8622 897.787L80.2706 894.118C75.6683 896.114 70.7547 897.116 65.5098 897.116L65.5098 901.116ZM81.8704 897.784C86.8977 895.577 91.3245 892.566 95.1369 888.753L92.3084 885.925C88.8551 889.378 84.8445 892.109 80.2624 894.121L81.8704 897.784ZM95.1369 888.753C98.9532 884.937 101.965 880.477 104.171 875.391L100.501 873.799C98.4885 878.439 95.7577 882.476 92.3084 885.925L95.1369 888.753ZM104.171 875.391C106.395 870.264 107.5 864.777 107.5 858.95L103.5 858.95C103.5 864.257 102.496 869.199 100.501 873.799L104.171 875.391ZM107.5 858.95C107.5 853.18 106.393 847.722 104.171 842.598L100.501 844.19C102.497 848.792 103.5 853.705 103.5 858.95L107.5 858.95ZM104.174 842.606C101.968 837.457 98.9527 832.99 95.1253 829.224L92.32 832.075C95.7582 835.458 98.4854 839.486 100.498 844.182L104.174 842.606ZM95.1369 829.235C91.3245 825.423 86.8977 822.412 81.8704 820.205L80.2624 823.868C84.8445 825.879 88.8551 828.611 92.3084 832.064L95.1369 829.235ZM81.8622 820.202C76.7379 817.979 71.2804 816.872 65.5097 816.872L65.5097 820.872C70.7547 820.872 75.6683 821.875 80.2706 823.871L81.8622 820.202ZM82.8242 612.899L82.2774 614.823L82.291 614.826L82.8242 612.899ZM98.3808 619.403L99.3912 617.677L99.3821 617.671L98.3808 619.403ZM121.848 642.782L123.574 641.771L123.569 641.763L123.564 641.756L121.848 642.782ZM128.352 658.338L126.422 658.866L126.425 658.876L126.428 658.885L128.352 658.338ZM128.352 692.967L126.428 692.42L126.424 692.434L128.352 692.967ZM121.848 708.524L123.564 709.55L123.572 709.537L123.579 709.525L121.848 708.524ZM98.3808 731.991L99.3821 733.722L99.3945 733.715L99.4067 733.707L98.3808 731.991ZM82.8242 738.582L83.3522 740.511L83.3643 740.508L83.3763 740.505L82.8242 738.582ZM48.1953 738.582L47.6485 740.506L47.6579 740.509L47.6673 740.511L48.1953 738.582ZM32.6386 731.991L31.6127 733.707L31.6205 733.712L31.6283 733.717L32.6386 731.991ZM9.25974 708.524L7.52839 709.525L7.53371 709.534L9.25974 708.524ZM2.75583 692.967L4.6835 692.434L4.67964 692.42L2.75583 692.967ZM2.75583 658.338L4.67964 658.885L4.68231 658.876L4.68489 658.866L2.75583 658.338ZM48.1953 612.899L48.7232 614.828L48.7327 614.825L48.7421 614.823L48.1953 612.899ZM49.9531 638.739L50.7409 640.577L50.7489 640.574L49.9531 638.739ZM37.209 647.352L38.6116 648.778L38.6232 648.766L38.6346 648.755L37.209 647.352ZM28.5957 660.096L30.4305 660.892L30.434 660.884L28.5957 660.096ZM37.209 704.041L38.6346 702.639L38.6289 702.633L38.6232 702.627L37.209 704.041ZM49.9531 712.655L50.7489 710.82L50.7409 710.816L49.9531 712.655ZM81.0664 712.655L81.8622 714.49L81.8704 714.486L81.0664 712.655ZM102.336 660.096L100.498 660.884L100.501 660.892L102.336 660.096ZM93.7226 647.352L92.3084 648.766L92.3142 648.772L92.32 648.778L93.7226 647.352ZM81.0664 638.739L81.8704 636.907L81.8622 636.904L81.0664 638.739ZM65.5097 612.526C71.3075 612.526 76.8946 613.293 82.2774 614.823L83.371 610.975C77.6209 609.341 71.6651 608.526 65.5097 608.526L65.5097 612.526ZM82.291 614.826C87.6379 616.305 92.6659 618.408 97.3796 621.134L99.3821 617.671C94.3692 614.772 89.0261 612.539 83.3574 610.971L82.291 614.826ZM97.3705 621.129C102.026 623.854 106.285 627.147 110.15 631.012L112.979 628.184C108.875 624.08 104.345 620.577 99.3912 617.677L97.3705 621.129ZM110.15 631.012C114.019 634.881 117.345 639.145 120.131 643.808L123.564 641.756C120.608 636.809 117.079 632.284 112.979 628.184L110.15 631.012ZM120.122 643.792C122.842 648.44 124.944 653.463 126.422 658.866L130.281 657.81C128.713 652.081 126.478 646.733 123.574 641.771L120.122 643.792ZM126.428 658.885C127.958 664.268 128.725 669.855 128.725 675.653L132.725 675.653C132.725 669.497 131.91 663.542 130.275 657.791L126.428 658.885ZM128.725 675.653C128.725 681.45 127.958 687.038 126.428 692.42L130.275 693.514C131.91 687.764 132.725 681.808 132.725 675.653L128.725 675.653ZM126.424 692.434C124.945 697.781 122.842 702.809 120.116 707.523L123.579 709.525C126.478 704.512 128.711 699.169 130.279 693.5L126.424 692.434ZM120.131 707.498C117.345 712.16 114.019 716.424 110.15 720.293L112.979 723.122C117.079 719.022 120.608 714.497 123.564 709.55L120.131 707.498ZM110.15 720.293C106.282 724.162 102.017 727.488 97.3549 730.274L99.4067 733.707C104.354 730.751 108.879 727.222 112.979 723.122L110.15 720.293ZM97.3796 730.259C92.6605 732.988 87.6261 735.122 82.2721 736.66L83.3763 740.505C89.0379 738.878 94.3746 736.618 99.3821 733.722L97.3796 730.259ZM82.2962 736.653C76.9079 738.128 71.3143 738.868 65.5097 738.868L65.5097 742.868C71.6583 742.868 77.6077 742.084 83.3522 740.511L82.2962 736.653ZM65.5097 738.868C59.7052 738.868 54.1116 738.128 48.7232 736.653L47.6673 740.511C53.4118 742.084 59.3612 742.868 65.5097 742.868L65.5097 738.868ZM48.7421 736.659C43.3315 735.121 38.3025 732.989 33.649 730.265L31.6283 733.717C36.5842 736.618 41.9263 738.88 47.6485 740.506L48.7421 736.659ZM33.6646 730.274C29.0022 727.488 24.738 724.162 20.8693 720.293L18.0408 723.122C22.1409 727.222 26.6657 730.751 31.6127 733.707L33.6646 730.274ZM20.8693 720.293C17.0042 716.428 13.711 712.169 10.9858 707.513L7.53371 709.534C10.4335 714.488 13.9372 719.018 18.0408 723.122L20.8693 720.293ZM10.9911 707.523C8.26508 702.809 6.16239 697.781 4.68346 692.434L0.828211 693.5C2.39615 699.169 4.6294 704.512 7.52841 709.525L10.9911 707.523ZM4.67964 692.42C3.14981 687.038 2.38279 681.45 2.38279 675.653L-1.61721 675.653C-1.61721 681.808 -0.802198 687.764 0.832026 693.514L4.67964 692.42ZM2.38279 675.653C2.38279 669.855 3.1498 664.268 4.67964 658.885L0.832024 657.792C-0.802199 663.542 -1.61721 669.497 -1.61721 675.653L2.38279 675.653ZM4.68489 658.866C6.16378 653.463 8.26498 648.44 10.9858 643.792L7.53371 641.771C4.6295 646.733 2.39476 652.081 0.826775 657.81L4.68489 658.866ZM10.9858 643.792C13.7109 639.136 17.0042 634.877 20.8693 631.012L18.0408 628.184C13.9372 632.287 10.4335 636.817 7.53371 641.771L10.9858 643.792ZM20.8693 631.012C24.7344 627.147 28.9935 623.854 33.649 621.129L31.6283 617.677C26.6744 620.577 22.1445 624.08 18.0408 628.184L20.8693 631.012ZM33.649 621.129C38.297 618.408 43.3196 616.307 48.7232 614.828L47.6673 610.97C41.9381 612.538 36.5896 614.773 31.6283 617.677L33.649 621.129ZM48.7421 614.823C54.1248 613.293 59.712 612.526 65.5097 612.526L65.5097 608.526C59.3544 608.526 53.3986 609.341 47.6485 610.975L48.7421 614.823ZM65.5097 633.575C59.7391 633.575 54.2815 634.681 49.1573 636.904L50.7489 640.574C55.3512 638.577 60.2648 637.575 65.5097 637.575L65.5097 633.575ZM49.1653 636.9C44.0168 639.107 39.549 642.122 35.7833 645.949L38.6346 648.755C42.0174 645.316 46.0456 642.589 50.7409 640.577L49.1653 636.9ZM35.8063 645.926C31.9789 649.692 28.9639 654.16 26.7574 659.308L30.434 660.884C32.4462 656.189 35.1734 652.16 38.6116 648.778L35.8063 645.926ZM26.7608 659.3C24.5383 664.425 23.4316 669.882 23.4316 675.653L27.4316 675.653C27.4316 670.408 28.4344 665.494 30.4305 660.892L26.7608 659.3ZM23.4316 675.653C23.4316 681.479 24.5371 686.966 26.7608 692.093L30.4305 690.501C28.4355 685.902 27.4316 680.959 27.4316 675.653L23.4316 675.653ZM26.7608 692.093C28.967 697.18 31.9784 701.639 35.7947 705.456L38.6232 702.627C35.1739 699.178 32.4431 695.141 30.4305 690.501L26.7608 692.093ZM35.7833 705.444C39.549 709.271 44.0168 712.286 49.1653 714.493L50.7409 710.816C46.0456 708.804 42.0174 706.077 38.6346 702.639L35.7833 705.444ZM49.1573 714.49C54.2815 716.712 59.7391 717.819 65.5097 717.819L65.5097 713.819C60.2648 713.819 55.3512 712.816 50.7489 710.82L49.1573 714.49ZM65.5097 717.819C71.2804 717.819 76.7379 716.712 81.8622 714.49L80.2705 710.82C75.6683 712.816 70.7547 713.819 65.5097 713.819L65.5097 717.819ZM81.8704 714.486C86.8977 712.279 91.3245 709.268 95.1368 705.456L92.3084 702.627C88.8551 706.08 84.8445 708.812 80.2624 710.823L81.8704 714.486ZM95.1368 705.456C98.9532 701.639 101.965 697.18 104.171 692.093L100.501 690.501C98.4885 695.141 95.7577 699.178 92.3084 702.627L95.1368 705.456ZM104.171 692.093C106.395 686.966 107.5 681.479 107.5 675.653L103.5 675.653C103.5 680.959 102.496 685.902 100.501 690.501L104.171 692.093ZM107.5 675.653C107.5 669.882 106.393 664.425 104.171 659.3L100.501 660.892C102.497 665.494 103.5 670.408 103.5 675.653L107.5 675.653ZM104.174 659.308C101.968 654.16 98.9527 649.692 95.1253 645.926L92.32 648.778C95.7582 652.16 98.4854 656.189 100.498 660.884L104.174 659.308ZM95.1368 645.938C91.3245 642.125 86.8976 639.114 81.8704 636.907L80.2624 640.57C84.8445 642.582 88.8551 645.313 92.3084 648.766L95.1368 645.938ZM81.8622 636.904C76.7379 634.681 71.2804 633.575 65.5097 633.575L65.5097 637.575C70.7547 637.575 75.6683 638.577 80.2705 640.574L81.8622 636.904ZM128 425.646L130 425.646L130 423.646L128 423.646L128 425.646ZM128 450.783L128 452.783L130 452.783L130 450.783L128 450.783ZM33.0781 451.838L33.8574 453.679L33.887 453.667L33.9162 453.653L33.0781 451.838ZM29.123 454.562L30.5005 456.012L30.5377 455.977L30.573 455.94L29.123 454.562ZM128 476.007L130 476.007L130 474.007L128 474.007L128 476.007ZM128 501.232L128 503.232L130 503.232L130 501.232L128 501.232ZM29.123 504.923L30.5005 506.373L30.5377 506.338L30.573 506.301L29.123 504.923ZM128 526.369L130 526.369L130 524.369L128 524.369L128 526.369ZM128 551.593L128 553.593L130 553.593L130 551.593L128 551.593ZM23.3222 548.693L22.5316 550.53L22.543 550.535L23.3222 548.693ZM3.19528 528.566L5.03725 527.787L5.03237 527.775L3.19528 528.566ZM2.75583 500.265L4.61794 500.995L4.62224 500.984L4.6264 500.973L2.75583 500.265ZM9.96286 488.576L11.4382 489.926L12.6741 488.576L11.4382 487.225L9.96286 488.576ZM2.75583 476.974L4.62318 476.258L4.62058 476.251L4.61794 476.245L2.75583 476.974ZM3.19528 448.761L5.02867 449.561L5.03481 449.546L5.04074 449.532L3.19528 448.761ZM11.2812 436.72L12.6833 438.147L12.6955 438.135L12.7075 438.122L11.2812 436.72ZM23.3222 428.634L24.0931 430.48L24.1073 430.474L24.1214 430.468L23.3222 428.634ZM126 425.646L126 450.783L130 450.783L130 425.646L126 425.646ZM128 448.783L38 448.783L38 452.783L128 452.783L128 448.783ZM38 448.783C35.9669 448.783 34.0387 449.191 32.24 450.022L33.9162 453.653C35.1644 453.077 36.5174 452.783 38 452.783L38 448.783ZM32.2988 449.996C30.5283 450.745 28.9801 451.809 27.673 453.185L30.573 455.94C31.4925 454.972 32.581 454.219 33.8574 453.679L32.2988 449.996ZM27.7455 453.112C26.3697 454.419 25.3055 455.967 24.5565 457.738L28.2403 459.297C28.7804 458.02 29.5326 456.932 30.5005 456.012L27.7455 453.112ZM24.5565 457.738C23.8012 459.523 23.4316 461.431 23.4316 463.439L27.4316 463.439C27.4316 461.932 27.7066 460.558 28.2403 459.297L24.5565 457.738ZM23.4316 463.439C23.4316 465.448 23.8012 467.355 24.5565 469.14L28.2403 467.582C27.7066 466.32 27.4316 464.946 27.4316 463.439L23.4316 463.439ZM24.5565 469.14C25.3016 470.901 26.3551 472.464 27.7088 473.818L30.5372 470.99C29.5471 470 28.7843 468.867 28.2403 467.582L24.5565 469.14ZM27.7088 473.818C29.0133 475.123 30.5504 476.143 32.2988 476.883L33.8574 473.199C32.5589 472.649 31.4592 471.912 30.5372 470.99L27.7088 473.818ZM32.2988 476.883C34.084 477.638 35.9915 478.007 38 478.007L38 474.007C36.4929 474.007 35.119 473.732 33.8574 473.199L32.2988 476.883ZM38 478.007L128 478.007L128 474.007L38 474.007L38 478.007ZM126 476.007L126 501.232L130 501.232L130 476.007L126 476.007ZM128 499.232L38 499.232L38 503.232L128 503.232L128 499.232ZM38 499.232C35.9915 499.232 34.084 499.602 32.2988 500.357L33.8574 504.041C35.119 503.507 36.4929 503.232 38 503.232L38 499.232ZM32.2988 500.357C30.5283 501.106 28.9801 502.17 27.673 503.546L30.573 506.301C31.4925 505.333 32.581 504.581 33.8574 504.041L32.2988 500.357ZM27.7455 503.473C26.3697 504.781 25.3055 506.329 24.5565 508.099L28.2403 509.658C28.7804 508.381 29.5326 507.293 30.5005 506.373L27.7455 503.473ZM24.5565 508.099C23.8012 509.884 23.4316 511.792 23.4316 513.8L27.4316 513.8C27.4316 512.293 27.7066 510.919 28.2403 509.658L24.5565 508.099ZM23.4316 513.8C23.4316 515.809 23.8012 517.716 24.5565 519.502L28.2403 517.943C27.7066 516.681 27.4316 515.307 27.4316 513.8L23.4316 513.8ZM24.5565 519.502C25.3016 521.263 26.3551 522.826 27.7088 524.179L30.5372 521.351C29.5471 520.361 28.7843 519.229 28.2403 517.943L24.5565 519.502ZM27.7088 524.179C29.0134 525.484 30.5504 526.504 32.2988 527.244L33.8574 523.56C32.5589 523.011 31.4592 522.273 30.5372 521.351L27.7088 524.179ZM32.2988 527.244C34.084 527.999 35.9915 528.369 38 528.369L38 524.369C36.4929 524.369 35.119 524.094 33.8574 523.56L32.2988 527.244ZM38 528.369L128 528.369L128 524.369L38 524.369L38 528.369ZM126 526.369L126 551.593L130 551.593L130 526.369L126 526.369ZM128 549.593L38 549.593L38 553.593L128 553.593L128 549.593ZM38 549.593C33.039 549.593 28.4128 548.675 24.1015 546.851L22.543 550.535C27.3723 552.578 32.5313 553.593 38 553.593L38 549.593ZM24.1129 546.856C19.7053 544.959 15.9061 542.403 12.6954 539.193L9.867 542.021C13.4533 545.608 17.6814 548.443 22.5316 550.53L24.1129 546.856ZM12.6954 539.193C9.42332 535.921 6.872 532.124 5.03722 527.787L1.35335 529.345C3.38575 534.149 6.22506 538.379 9.867 542.021L12.6954 539.193ZM5.03237 527.775C3.15142 523.405 2.207 518.753 2.207 513.8L-1.793 513.8C-1.793 519.277 -0.745237 524.469 1.3582 529.357L5.03237 527.775ZM2.207 513.8C2.207 509.361 3.01045 505.097 4.61794 500.995L0.893712 499.536C-0.897234 504.106 -1.793 508.865 -1.793 513.8L2.207 513.8ZM4.6264 500.973C6.17624 496.877 8.44354 493.198 11.4382 489.926L8.48751 487.225C5.15405 490.868 2.61667 494.982 0.885255 499.557L4.6264 500.973ZM11.4382 487.225C8.43942 483.949 6.17194 480.296 4.62318 476.258L0.888474 477.69C2.62096 482.207 5.15817 486.289 8.48751 489.926L11.4382 487.225ZM4.61794 476.245C3.01045 472.143 2.207 467.879 2.207 463.439L-1.793 463.439C-1.793 468.375 -0.897236 473.134 0.893712 477.704L4.61794 476.245ZM2.207 463.439C2.207 458.486 3.15142 453.867 5.02867 449.561L1.36188 447.962C-0.745236 452.796 -1.793 457.962 -1.793 463.439L2.207 463.439ZM5.04074 449.532C6.87531 445.14 9.42287 441.352 12.6833 438.147L9.87914 435.294C6.2255 438.886 3.38243 443.125 1.34981 447.99L5.04074 449.532ZM12.7075 438.122C15.9126 434.862 19.7013 432.314 24.0931 430.48L22.5513 426.789C17.6854 428.822 13.4467 431.665 9.85496 435.318L12.7075 438.122ZM24.1214 430.468C28.428 428.591 33.0472 427.646 38 427.646L38 423.646C32.523 423.646 27.357 424.694 22.5231 426.801L24.1214 430.468ZM38 427.646L128 427.646L128 423.646L38 423.646L38 427.646ZM128 334.634L130 334.634L130 332.634L128 332.634L128 334.634ZM128 359.858L128 361.858L130 361.858L130 359.858L128 359.858ZM1.9648 359.858L-0.0351953 359.858L-0.0351952 361.858L1.9648 361.858L1.9648 359.858ZM1.9648 334.634L1.9648 332.634L-0.0351965 332.634L-0.0351964 334.634L1.9648 334.634ZM126 334.634L126 359.858L130 359.858L130 334.634L126 334.634ZM128 357.858L1.9648 357.858L1.9648 361.858L128 361.858L128 357.858ZM3.9648 359.858L3.9648 334.634L-0.0351964 334.634L-0.0351953 359.858L3.9648 359.858ZM1.9648 336.634L128 336.634L128 332.634L1.9648 332.634L1.9648 336.634ZM128 167.156L130 167.156L130 165.156L128 165.156L128 167.156ZM128 194.139L129.011 195.864L130 195.285L130 194.139L128 194.139ZM45.0312 242.742L44.0203 241.016L37.6603 244.742L45.0312 244.742L45.0312 242.742ZM128 242.742L130 242.742L130 240.742L128 240.742L128 242.742ZM128 267.967L128 269.967L130 269.967L130 267.967L128 267.967ZM1.9648 267.967L-0.0351993 267.967L-0.0351992 269.967L1.9648 269.967L1.9648 267.967ZM1.9648 240.984L0.954671 239.258L-0.0352005 239.837L-0.0352005 240.984L1.9648 240.984ZM85.0214 192.381L86.0316 194.107L92.3991 190.381L85.0214 190.381L85.0214 192.381ZM1.9648 192.381L-0.0352026 192.381L-0.0352025 194.381L1.9648 194.381L1.9648 192.381ZM1.9648 167.156L1.9648 165.156L-0.0352038 165.156L-0.0352037 167.156L1.9648 167.156ZM126 167.156L126 194.139L130 194.139L130 167.156L126 167.156ZM126.989 192.413L44.0203 241.016L46.0421 244.468L129.011 195.864L126.989 192.413ZM45.0312 244.742L128 244.742L128 240.742L45.0312 240.742L45.0312 244.742ZM126 242.742L126 267.967L130 267.967L130 242.742L126 242.742ZM128 265.967L1.9648 265.967L1.9648 269.967L128 269.967L128 265.967ZM3.9648 267.967L3.9648 240.984L-0.0352005 240.984L-0.0351993 267.967L3.9648 267.967ZM2.97493 242.711L86.0316 194.107L84.0113 190.655L0.954671 239.258L2.97493 242.711ZM85.0214 190.381L1.9648 190.381L1.9648 194.381L85.0214 194.381L85.0214 190.381ZM3.9648 192.381L3.9648 167.156L-0.0352037 167.156L-0.0352026 192.381L3.9648 192.381ZM1.9648 169.156L128 169.156L128 165.156L1.9648 165.156L1.9648 169.156ZM115.256 0.206292L116.78 -1.089L116.181 -1.79371L115.256 -1.79371L115.256 0.206292ZM126.769 19.8059L128.648 19.1188L128.645 19.1121L128.643 19.1053L126.769 19.8059ZM128.352 59.6204L126.428 59.0736L126.424 59.0872L128.352 59.6204ZM121.848 75.0891L123.564 76.115L123.569 76.1073L123.574 76.0995L121.848 75.0891ZM111.652 88.2727L113.067 89.6869L113.072 89.6816L113.077 89.6764L111.652 88.2727ZM98.4687 98.468L99.47 100.199L99.4791 100.194L98.4687 98.468ZM82.8242 105.06L83.3521 106.989L83.3615 106.986L83.3709 106.984L82.8242 105.06ZM48.2832 105.06L47.731 106.982L47.7405 106.985L47.75 106.987L48.2832 105.06ZM32.8144 98.468L33.8248 96.7419L33.8157 96.7367L32.8144 98.468ZM19.6308 88.2727L21.0555 86.869L21.0503 86.8638L21.045 86.8585L19.6308 88.2727ZM2.93159 59.6204L4.85926 59.0872L4.8554 59.0736L2.93159 59.6204ZM4.60151 19.8059L6.47479 20.5065L6.4773 20.4998L6.47975 20.493L4.60151 19.8059ZM16.0273 0.206296L17.0563 -1.50867L15.6019 -2.38135L14.5034 -1.08899L16.0273 0.206296ZM37.9999 13.3899L39.4033 14.8148L41.2428 13.0033L39.0289 11.6749L37.9999 13.3899ZM28.9472 26.5735L30.7731 27.3898L30.7771 27.3807L30.781 27.3717L28.9472 26.5735ZM28.7714 57.8625L26.9366 58.6584L26.9401 58.6665L28.7714 57.8625ZM37.3847 70.5188L38.8104 69.1161L38.8047 69.1103L38.7989 69.1046L37.3847 70.5188ZM50.041 79.1321L50.8449 77.3008L50.8368 77.2972L50.041 79.1321ZM102.512 57.8625L104.343 58.6665L104.347 58.6583L102.512 57.8625ZM101.369 24.552L103.158 23.6576L102.605 22.552L101.369 22.552L101.369 24.552ZM65.5097 24.552L63.5097 24.552L63.5097 26.552L65.5097 26.552L65.5097 24.552ZM65.5097 0.206294L65.5097 -1.79371L63.5097 -1.79371L63.5097 0.206294L65.5097 0.206294ZM113.732 1.50158C118.562 7.18432 122.282 13.5163 124.896 20.5065L128.643 19.1053C125.866 11.6814 121.91 4.94701 116.78 -1.089L113.732 1.50158ZM124.891 20.493C127.446 27.4766 128.725 34.7436 128.725 42.3059L132.725 42.3059C132.725 34.2822 131.366 26.5493 128.648 19.1188L124.891 20.493ZM128.725 42.3059C128.725 48.1036 127.958 53.6908 126.428 59.0736L130.275 60.1671C131.91 54.4171 132.725 48.4613 132.725 42.3059L128.725 42.3059ZM126.424 59.0872C124.945 64.4324 122.844 69.4276 120.122 74.0787L123.574 76.0995C126.476 71.1412 128.711 65.824 130.279 60.1536L126.424 59.0872ZM120.131 74.0632C117.342 78.7308 114.041 82.9985 110.228 86.869L113.077 89.6764C117.115 85.5781 120.611 81.0568 123.564 76.115L120.131 74.0632ZM110.238 86.8585C106.373 90.7236 102.114 94.0168 97.4583 96.7419L99.4791 100.194C104.433 97.2942 108.963 93.7905 113.067 89.6869L110.238 86.8585ZM97.4674 96.7367C92.7514 99.4641 87.6897 101.598 82.2774 103.136L83.3709 106.984C89.0914 105.358 94.4595 103.097 99.47 100.199L97.4674 96.7367ZM82.2962 103.131C76.9079 104.605 71.3143 105.345 65.5097 105.345L65.5097 109.345C71.6583 109.345 77.6076 108.561 83.3521 106.989L82.2962 103.131ZM65.5097 105.345C59.7051 105.345 54.1427 104.605 48.8163 103.132L47.75 106.987C53.4392 108.561 59.3613 109.345 65.5097 109.345L65.5097 105.345ZM48.8353 103.138C43.4831 101.6 38.4813 99.4678 33.8248 96.7419L31.804 100.194C36.7569 103.093 42.0676 105.355 47.731 106.982L48.8353 103.138ZM33.8157 96.7367C29.1069 94.0135 24.8549 90.7251 21.0555 86.869L18.2062 89.6764C22.2583 93.7891 26.7954 97.2975 31.8132 100.199L33.8157 96.7367ZM21.045 86.8585C17.1799 82.9934 13.8867 78.7343 11.1615 74.0787L7.70947 76.0995C10.6093 81.0533 14.1129 85.5832 18.2166 89.6869L21.045 86.8585ZM11.1615 74.0787C8.43892 69.4276 6.33765 64.4324 4.85921 59.0872L1.00396 60.1536C2.5724 65.824 4.80707 71.1412 7.70947 76.0995L11.1615 74.0787ZM4.8554 59.0736C3.32556 53.6908 2.55854 48.1036 2.55854 42.3059L-1.44146 42.3059C-1.44146 48.4613 -0.626445 54.4171 1.00778 60.1671L4.8554 59.0736ZM2.55854 42.3059C2.55854 34.749 3.86436 27.4866 6.47479 20.5065L2.72823 19.1053C-0.0519716 26.5393 -1.44146 34.2769 -1.44146 42.3059L2.55854 42.3059ZM6.47975 20.493C9.03506 13.5085 12.7235 7.18115 17.5512 1.50158L14.5034 -1.08899C9.37012 4.95019 5.4414 11.6892 2.72326 19.1188L6.47975 20.493ZM14.9983 1.92126L36.971 15.1049L39.0289 11.6749L17.0563 -1.50867L14.9983 1.92126ZM36.5966 11.965C32.547 15.9531 29.3834 20.5604 27.1134 25.7753L30.781 27.3717C32.847 22.6256 35.7185 18.4438 39.4033 14.8148L36.5966 11.965ZM27.1214 25.7572C24.7789 30.9971 23.6074 36.5195 23.6074 42.3059L27.6074 42.3059C27.6074 37.0767 28.6624 32.1108 30.7731 27.3898L27.1214 25.7572ZM23.6074 42.3059C23.6074 48.0765 24.714 53.5341 26.9366 58.6583L30.6063 57.0668C28.6101 52.4645 27.6074 47.5509 27.6074 42.3059L23.6074 42.3059ZM26.9401 58.6665C29.1472 63.6938 32.1582 68.1207 35.9705 71.933L38.7989 69.1046C35.3456 65.6512 32.6144 61.6406 30.6027 57.0586L26.9401 58.6665ZM35.959 71.9215C39.7207 75.7447 44.1557 78.7595 49.2451 80.9669L50.8368 77.2972C46.1996 75.2859 42.1971 72.5585 38.8104 69.1161L35.959 71.9215ZM49.237 80.9634C54.3076 83.1894 59.7391 84.2961 65.5097 84.2961L65.5097 80.2961C60.2647 80.2961 55.3837 79.2935 50.8449 77.3008L49.237 80.9634ZM65.5097 84.2961C71.3359 84.2961 76.8231 83.1907 81.9501 80.9669L80.3584 77.2972C75.7588 79.2922 70.8163 80.2961 65.5097 80.2961L65.5097 84.2961ZM81.9501 80.9669C87.0366 78.7607 91.4963 75.7494 95.3126 71.933L92.4842 69.1046C89.0349 72.5538 84.9984 75.2847 80.3584 77.2972L81.9501 80.9669ZM95.3126 71.933C99.1249 68.1207 102.136 63.6938 104.343 58.6665L100.68 57.0586C98.6687 61.6406 95.9375 65.6512 92.4842 69.1046L95.3126 71.933ZM104.347 58.6583C106.569 53.5341 107.676 48.0765 107.676 42.3059L103.676 42.3059C103.676 47.5509 102.673 52.4645 100.677 57.0668L104.347 58.6583ZM107.676 42.3059C107.676 38.9796 107.275 35.7373 106.471 32.5834L102.595 33.5714C103.315 36.394 103.676 39.3041 103.676 42.3059L107.676 42.3059ZM106.471 32.5834C105.675 29.46 104.571 26.4836 103.158 23.6576L99.5802 25.4464C100.863 28.011 101.868 30.7183 102.595 33.5714L106.471 32.5834ZM101.369 22.552L65.5097 22.552L65.5097 26.552L101.369 26.552L101.369 22.552ZM67.5097 24.552L67.5097 0.206294L63.5097 0.206294L63.5097 24.552L67.5097 24.552ZM65.5097 2.20629L115.256 2.20629L115.256 -1.79371L65.5097 -1.79371L65.5097 2.20629Z" fill="#FFE9E1"/>
</svg>
