<svg width="49" height="45" viewBox="0 0 49 45" fill="none" xmlns="http://www.w3.org/2000/svg">
<path d="M41.7761 29.7832C43.296 26.3939 43.6459 22.6429 42.7765 19.0574C41.9072 15.4718 39.8624 12.2322 36.9296 9.79386C33.9968 7.35555 30.3235 5.8412 26.4262 5.46373C22.5289 5.08626 18.6035 5.86465 15.202 7.68946L12.8783 3.87087C16.4332 1.96403 20.4587 0.965415 24.5532 0.974673C28.6477 0.983931 32.668 2.00073 36.213 3.92363C46.7302 9.62183 50.7591 21.8229 45.8565 31.997L49 33.6985L39.244 38.5657L38.8576 28.2026L41.7761 29.7832V29.7832ZM7.22621 16.14C5.70635 19.5293 5.35649 23.2803 6.22582 26.8659C7.09515 30.4514 9.13995 33.691 12.0727 36.1294C15.0055 38.5677 18.6788 40.082 22.5761 40.4595C26.4735 40.837 30.3988 40.0586 33.8004 38.2338L36.124 42.0524C32.5691 43.9592 28.5437 44.9578 24.4492 44.9485C20.3547 44.9393 16.3344 43.9225 12.7893 41.9996C2.2721 36.3014 -1.75678 24.1004 3.1458 13.9263L0 12.2269L9.75596 7.3597L10.1425 17.7229L7.22386 16.1422L7.22621 16.14ZM27.8156 29.1786L21.1844 22.9616L14.5602 29.1786L11.2481 26.0701L21.1867 16.7446L27.8133 22.9616L34.4398 16.7446L37.752 19.8531L27.8133 29.1786H27.8156Z" fill="#F24E1E"/>
</svg>
