<svg width="54" height="49" viewBox="0 0 54 49" fill="none" xmlns="http://www.w3.org/2000/svg">
<path d="M50.0087 22.4599C50.0781 23.0705 50.1127 23.7093 50.1127 24.3834C50.1127 28.9609 48.3714 32.0384 46.6841 33.9654C46.0028 34.7479 45.2231 35.4539 44.3611 36.0689C44.0696 36.2746 43.7661 36.4654 43.4519 36.6406L43.4172 36.6583C43.1118 36.8097 42.8568 37.034 42.6791 37.3073C42.5014 37.5807 42.4077 37.893 42.4079 38.2112V42.8522C42.4079 43.3202 42.2049 43.769 41.8437 44.1C41.4825 44.4309 40.9925 44.6168 40.4817 44.6168H38.5555C38.5555 43.6808 38.1496 42.7831 37.4271 42.1212C36.7046 41.4594 35.7248 41.0875 34.703 41.0875H26.9982C25.9765 41.0875 24.9966 41.4594 24.2741 42.1212C23.5517 42.7831 23.1458 43.6808 23.1458 44.6168H21.2196C20.7087 44.6168 20.2188 44.4309 19.8575 44.1C19.4963 43.769 19.2934 43.3202 19.2934 42.8522V40.724C19.2938 40.2862 19.1167 39.8639 18.7963 39.5391C18.4759 39.2143 18.0352 39.0102 17.5598 38.9664C16.9494 38.845 16.3514 38.6762 15.7722 38.4617C14.2361 37.8939 12.8426 37.0448 11.6771 35.9665C9.9705 34.3783 8.92649 32.289 8.36404 30.8385C7.81314 29.395 6.54955 28.0891 4.74276 27.6233C4.49551 27.5588 4.27791 27.4224 4.1229 27.2345C3.96789 27.0466 3.88391 26.8176 3.88367 26.5821V23.7799C3.88346 23.5575 3.9623 23.3411 4.10826 23.1635C4.25423 22.9858 4.45938 22.8565 4.69268 22.7952C6.5611 22.3046 7.80929 20.9211 8.33707 19.46C8.76854 18.2601 9.53132 16.7213 10.7718 15.5672C12.1929 14.2674 13.8348 13.1876 15.6336 12.3697C15.7838 12.2991 15.9032 12.2497 15.9803 12.2179L16.0573 12.1826L16.0727 12.1791C16.4195 12.0429 16.7149 11.8165 16.9224 11.5279C17.1299 11.2393 17.2404 10.9012 17.24 10.5556V4.64758C18.0969 5.31714 18.9974 5.93826 19.9367 6.50751C21.1579 7.24161 22.5833 7.93688 24.0742 8.30745C24.5134 7.14985 25.1144 6.04871 25.8617 5.03227H25.8386C24.7638 4.92992 23.4501 4.397 22.044 3.5535C20.7554 2.75983 19.5438 1.86597 18.4227 0.881821C18.0037 0.521822 17.4802 0.280349 16.915 0.186434C16.3498 0.0925189 15.767 0.15016 15.2368 0.352427C14.6928 0.5499 14.226 0.892141 13.8964 1.33501C13.5668 1.77787 13.3896 2.30104 13.3876 2.83705V9.46153C11.4234 10.4315 9.62027 11.6531 8.03273 13.0896C6.19512 14.7908 5.19735 16.9154 4.68112 18.3518C4.46539 18.9412 4.03392 19.2977 3.63326 19.4C2.59554 19.6722 1.68273 20.2464 1.03287 21.036C0.383003 21.8255 0.0314103 22.7875 0.03125 23.7763V26.5821C0.03125 28.6468 1.52984 30.4573 3.6949 31.0185C3.94127 31.0971 4.1639 31.2278 4.34465 31.4002C4.5254 31.5725 4.65917 31.7815 4.73506 32.0102C5.37456 33.676 6.65356 36.3265 8.9342 38.4441C10.7498 40.1254 12.9821 41.3798 15.4409 42.1004V42.8522C15.4409 44.2562 16.0498 45.6028 17.1335 46.5956C18.2172 47.5884 19.687 48.1461 21.2196 48.1461H23.1458C24.1675 48.1461 25.1474 47.7743 25.8699 47.1124C26.5923 46.4505 26.9982 45.5529 26.9982 44.6168H34.703C34.703 45.5529 35.1089 46.4505 35.8314 47.1124C36.5539 47.7743 37.5337 48.1461 38.5555 48.1461H40.4817C42.0143 48.1461 43.4841 47.5884 44.5678 46.5956C45.6515 45.6028 46.2603 44.2562 46.2603 42.8522V39.1711C47.5444 38.316 48.6976 37.3071 49.689 36.1712C51.854 33.7007 53.9651 29.8608 53.9651 24.3834C53.9651 22.0893 53.6107 20.0353 52.925 18.2001C52.2382 19.7681 51.2506 21.2108 50.0087 22.4599V22.4599Z" fill="#F24E1E"/>
<path d="M49.3059 8.88285C50.2689 11.0119 50.4476 13.3706 49.8149 15.6011C49.1822 17.8316 47.7727 19.8122 45.8002 21.2424C44.1937 22.4035 41.994 22.3153 40.1063 21.5953L30.899 18.1049C29.0113 17.3884 27.3856 16.0261 27.1467 14.1662C26.8268 11.6294 27.5182 9.07208 29.0935 6.96528C30.6688 4.85847 33.022 3.34403 35.7196 2.70083C38.4172 2.05764 41.2777 2.32902 43.7743 3.46499C46.2708 4.60096 48.2352 6.52503 49.3059 8.88285V8.88285ZM43.4117 18.4719C44.4661 17.7086 45.2843 16.706 45.7853 15.5636C46.2863 14.4212 46.4526 13.1787 46.2677 11.9593C46.0828 10.7398 45.5531 9.58587 44.7312 8.61182C43.9093 7.63777 42.8237 6.87749 41.5821 6.40637C40.3405 5.93526 38.9861 5.76968 37.6531 5.92607C36.3201 6.08245 35.0549 6.55536 33.983 7.29789C32.9111 8.04043 32.0696 9.02678 31.5422 10.1591C31.0147 11.2915 30.8195 12.5305 30.976 13.7533C30.9837 13.8239 31.0146 13.9544 31.2303 14.1627C31.4614 14.3885 31.8467 14.6426 32.3745 14.8438L41.5818 18.3378C42.1095 18.539 42.5795 18.6096 42.9185 18.5954C43.2267 18.5884 43.3539 18.5143 43.4117 18.4719V18.4719Z" fill="#F24E1E"/>
<path d="M18.3307 21.6768C19.097 21.6768 19.8319 21.3979 20.3738 20.9015C20.9156 20.4051 21.22 19.7318 21.22 19.0298C21.22 18.3278 20.9156 17.6545 20.3738 17.1581C19.8319 16.6617 19.097 16.3828 18.3307 16.3828C17.5644 16.3828 16.8295 16.6617 16.2877 17.1581C15.7458 17.6545 15.4414 18.3278 15.4414 19.0298C15.4414 19.7318 15.7458 20.4051 16.2877 20.9015C16.8295 21.3979 17.5644 21.6768 18.3307 21.6768Z" fill="#F24E1E"/>
</svg>
