<svg width="26" height="17" viewBox="0 0 26 17" fill="none" xmlns="http://www.w3.org/2000/svg">
<path d="M25.8508 10.0979L22.5816 15.5943C22.3272 16.0221 21.963 16.3769 21.5251 16.6236C21.0873 16.8702 20.5912 17 20.0863 17H2.03238C1.19627 17 0.675323 16.1105 1.0966 15.4021L4.36574 9.90569C4.62016 9.47794 4.98443 9.12306 5.42227 8.87642C5.8601 8.62978 6.3562 8.5 6.86111 8.5H24.915C25.7512 8.5 26.2721 9.38953 25.8508 10.0979ZM6.86111 7.08333H21.6667V4.95833C21.6667 3.78471 20.6966 2.83333 19.5 2.83333H12.2778L9.38889 0H2.16667C0.970035 0 0 0.95138 0 2.125V14.4343L3.11806 9.19186C3.89161 7.89128 5.32589 7.08333 6.86111 7.08333Z" fill="#F05922"/>
</svg>
