<svg width="137" height="20" viewBox="0 0 137 20" fill="none" xmlns="http://www.w3.org/2000/svg">
<path d="M15.5098 17.1592C14.6634 17.8786 13.7197 18.4329 12.6787 18.8223C11.6377 19.2031 10.5544 19.3936 9.42871 19.3936C8.56543 19.3936 7.73177 19.2793 6.92773 19.0508C6.13216 18.8307 5.38737 18.5176 4.69336 18.1113C3.99935 17.6966 3.36458 17.2057 2.78906 16.6387C2.21354 16.0632 1.72266 15.4284 1.31641 14.7344C0.910156 14.0319 0.592773 13.2786 0.364258 12.4746C0.144206 11.6706 0.0341797 10.8369 0.0341797 9.97363C0.0341797 9.11035 0.144206 8.28092 0.364258 7.48535C0.592773 6.68978 0.910156 5.94499 1.31641 5.25098C1.72266 4.5485 2.21354 3.91374 2.78906 3.34668C3.36458 2.77116 3.99935 2.28027 4.69336 1.87402C5.38737 1.46777 6.13216 1.15462 6.92773 0.93457C7.73177 0.706055 8.56543 0.591797 9.42871 0.591797C10.5544 0.591797 11.6377 0.786458 12.6787 1.17578C13.7197 1.55664 14.6634 2.10677 15.5098 2.82617L13.6055 6C13.0553 5.44141 12.4206 5.00553 11.7012 4.69238C10.9818 4.37077 10.2243 4.20996 9.42871 4.20996C8.63314 4.20996 7.88411 4.3623 7.18164 4.66699C6.48763 4.97168 5.87826 5.38639 5.35352 5.91113C4.82878 6.42741 4.41406 7.03678 4.10938 7.73926C3.80469 8.43327 3.65234 9.17806 3.65234 9.97363C3.65234 10.7777 3.80469 11.5309 4.10938 12.2334C4.41406 12.9359 4.82878 13.5495 5.35352 14.0742C5.87826 14.599 6.48763 15.0137 7.18164 15.3184C7.88411 15.623 8.63314 15.7754 9.42871 15.7754C9.88574 15.7754 10.3301 15.7204 10.7617 15.6104C11.1934 15.5003 11.6038 15.348 11.9932 15.1533V9.97363H15.5098V17.1592ZM21.959 4.43848V11.7256H25.6025C26.1019 11.7256 26.5716 11.6325 27.0117 11.4463C27.4518 11.2516 27.8369 10.9893 28.167 10.6592C28.4971 10.3291 28.7552 9.94401 28.9414 9.50391C29.1361 9.05534 29.2334 8.58138 29.2334 8.08203C29.2334 7.58268 29.1361 7.11296 28.9414 6.67285C28.7552 6.22428 28.4971 5.83496 28.167 5.50488C27.8369 5.1748 27.4518 4.91667 27.0117 4.73047C26.5716 4.53581 26.1019 4.43848 25.6025 4.43848H21.959ZM21.959 19H18.3154V0.794922H25.6025C26.2712 0.794922 26.9144 0.883789 27.5322 1.06152C28.1501 1.23079 28.7256 1.47624 29.2588 1.79785C29.8005 2.111 30.2913 2.49186 30.7314 2.94043C31.18 3.38053 31.5609 3.87142 31.874 4.41309C32.1956 4.95475 32.4411 5.53451 32.6104 6.15234C32.7881 6.77018 32.877 7.41341 32.877 8.08203C32.877 8.70833 32.7965 9.31771 32.6357 9.91016C32.4834 10.5026 32.2591 11.0654 31.9629 11.5986C31.6751 12.1318 31.3197 12.6227 30.8965 13.0713C30.4733 13.5199 29.9993 13.9092 29.4746 14.2393L31.4932 19H27.6211L26.0342 15.3311L21.959 15.3564V19ZM93.8145 19H90.1836V6C90.1836 5.74609 90.1328 5.50911 90.0312 5.28906C89.9382 5.06901 89.807 4.87858 89.6377 4.71777C89.4769 4.5485 89.2865 4.41732 89.0664 4.32422C88.8464 4.23112 88.6094 4.18457 88.3555 4.18457C88.1016 4.18457 87.8646 4.23112 87.6445 4.32422C87.4245 4.41732 87.2298 4.5485 87.0605 4.71777C86.8997 4.87858 86.7728 5.06901 86.6797 5.28906C86.5866 5.50911 86.54 5.74609 86.54 6V19H82.8965V6C82.8965 5.74609 82.8499 5.50911 82.7568 5.28906C82.6637 5.06901 82.5326 4.87858 82.3633 4.71777C82.2025 4.5485 82.012 4.41732 81.792 4.32422C81.5719 4.23112 81.335 4.18457 81.0811 4.18457C80.8271 4.18457 80.5902 4.23112 80.3701 4.32422C80.1501 4.41732 79.9554 4.5485 79.7861 4.71777C79.6253 4.87858 79.4984 5.06901 79.4053 5.28906C79.3122 5.50911 79.2656 5.74609 79.2656 6V19H75.6221V6C75.6221 5.24674 75.7617 4.54004 76.041 3.87988C76.3288 3.21126 76.7181 2.63151 77.209 2.14062C77.7083 1.64128 78.2881 1.25195 78.9482 0.972656C79.6169 0.684896 80.3278 0.541016 81.0811 0.541016C81.7581 0.541016 82.4098 0.663737 83.0361 0.90918C83.6624 1.14616 84.2253 1.49316 84.7246 1.9502C85.224 1.49316 85.7826 1.14616 86.4004 0.90918C87.0267 0.663737 87.6784 0.541016 88.3555 0.541016C89.1087 0.541016 89.8154 0.684896 90.4756 0.972656C91.1442 1.25195 91.724 1.64128 92.2148 2.14062C92.7142 2.63151 93.1035 3.21126 93.3828 3.87988C93.6706 4.54004 93.8145 5.24674 93.8145 6V19ZM100.721 19H97.0771V0.794922H100.721V19ZM118.672 19H114.774L107.754 7.01562V19H104.11V0.794922H108.008L115.028 12.792V0.794922H118.672V19ZM136.547 17.1592C135.701 17.8786 134.757 18.4329 133.716 18.8223C132.675 19.2031 131.591 19.3936 130.466 19.3936C129.603 19.3936 128.769 19.2793 127.965 19.0508C127.169 18.8307 126.424 18.5176 125.73 18.1113C125.036 17.6966 124.402 17.2057 123.826 16.6387C123.251 16.0632 122.76 15.4284 122.354 14.7344C121.947 14.0319 121.63 13.2786 121.401 12.4746C121.181 11.6706 121.071 10.8369 121.071 9.97363C121.071 9.11035 121.181 8.28092 121.401 7.48535C121.63 6.68978 121.947 5.94499 122.354 5.25098C122.76 4.5485 123.251 3.91374 123.826 3.34668C124.402 2.77116 125.036 2.28027 125.73 1.87402C126.424 1.46777 127.169 1.15462 127.965 0.93457C128.769 0.706055 129.603 0.591797 130.466 0.591797C131.591 0.591797 132.675 0.786458 133.716 1.17578C134.757 1.55664 135.701 2.10677 136.547 2.82617L134.643 6C134.092 5.44141 133.458 5.00553 132.738 4.69238C132.019 4.37077 131.261 4.20996 130.466 4.20996C129.67 4.20996 128.921 4.3623 128.219 4.66699C127.525 4.97168 126.915 5.38639 126.391 5.91113C125.866 6.42741 125.451 7.03678 125.146 7.73926C124.842 8.43327 124.689 9.17806 124.689 9.97363C124.689 10.7777 124.842 11.5309 125.146 12.2334C125.451 12.9359 125.866 13.5495 126.391 14.0742C126.915 14.599 127.525 15.0137 128.219 15.3184C128.921 15.623 129.67 15.7754 130.466 15.7754C130.923 15.7754 131.367 15.7204 131.799 15.6104C132.23 15.5003 132.641 15.348 133.03 15.1533V9.97363H136.547V17.1592Z" fill="#F05922"/>
<path d="M53.1133 9.97363C53.1133 10.8369 52.999 11.6706 52.7705 12.4746C52.5505 13.2702 52.2373 14.0192 51.8311 14.7217C51.4248 15.4157 50.9339 16.0505 50.3584 16.626C49.7829 17.2015 49.1481 17.6966 48.4541 18.1113C47.7601 18.5176 47.0111 18.8307 46.207 19.0508C45.403 19.2793 44.5693 19.3936 43.7061 19.3936C42.8428 19.3936 42.0091 19.2793 41.2051 19.0508C40.4095 18.8307 39.6605 18.5176 38.958 18.1113C38.264 17.6966 37.6292 17.2015 37.0537 16.626C36.4782 16.0505 35.9831 15.4157 35.5684 14.7217C35.1621 14.0192 34.8447 13.2702 34.6162 12.4746C34.3962 11.6706 34.2861 10.8369 34.2861 9.97363C34.2861 9.11035 34.3962 8.27669 34.6162 7.47266C34.8447 6.66862 35.1621 5.9196 35.5684 5.22559C35.9831 4.53158 36.4782 3.89681 37.0537 3.32129C37.6292 2.74577 38.264 2.25488 38.958 1.84863C39.6605 1.44238 40.4095 1.12923 41.2051 0.90918C42.0091 0.680664 42.8428 0.566406 43.7061 0.566406C44.5693 0.566406 45.403 0.680664 46.207 0.90918C47.0111 1.12923 47.7601 1.44238 48.4541 1.84863C49.1481 2.25488 49.7829 2.74577 50.3584 3.32129C50.9339 3.89681 51.4248 4.53158 51.8311 5.22559C52.2373 5.9196 52.5505 6.66862 52.7705 7.47266C52.999 8.27669 53.1133 9.11035 53.1133 9.97363ZM49.4951 9.97363C49.4951 9.17806 49.3428 8.42904 49.0381 7.72656C48.7334 7.01562 48.3187 6.40202 47.7939 5.88574C47.2777 5.361 46.6641 4.94629 45.9531 4.6416C45.2507 4.33691 44.5016 4.18457 43.7061 4.18457C42.902 4.18457 42.1488 4.33691 41.4463 4.6416C40.7438 4.94629 40.1302 5.361 39.6055 5.88574C39.0807 6.40202 38.666 7.01562 38.3613 7.72656C38.0566 8.42904 37.9043 9.17806 37.9043 9.97363C37.9043 10.7692 38.0566 11.5182 38.3613 12.2207C38.666 12.9147 39.0807 13.5241 39.6055 14.0488C40.1302 14.5736 40.7438 14.9883 41.4463 15.293C42.1488 15.5977 42.902 15.75 43.7061 15.75C44.5016 15.75 45.2507 15.5977 45.9531 15.293C46.6641 14.9883 47.2777 14.5736 47.7939 14.0488C48.3187 13.5241 48.7334 12.9147 49.0381 12.2207C49.3428 11.5182 49.4951 10.7692 49.4951 9.97363ZM73.3496 9.97363C73.3496 10.8369 73.2354 11.6706 73.0068 12.4746C72.7868 13.2702 72.4736 14.0192 72.0674 14.7217C71.6611 15.4157 71.1702 16.0505 70.5947 16.626C70.0192 17.2015 69.3844 17.6966 68.6904 18.1113C67.9964 18.5176 67.2474 18.8307 66.4434 19.0508C65.6393 19.2793 64.8057 19.3936 63.9424 19.3936C63.0791 19.3936 62.2454 19.2793 61.4414 19.0508C60.6458 18.8307 59.8968 18.5176 59.1943 18.1113C58.5003 17.6966 57.8656 17.2015 57.29 16.626C56.7145 16.0505 56.2194 15.4157 55.8047 14.7217C55.3984 14.0192 55.0811 13.2702 54.8525 12.4746C54.6325 11.6706 54.5225 10.8369 54.5225 9.97363C54.5225 9.11035 54.6325 8.27669 54.8525 7.47266C55.0811 6.66862 55.3984 5.9196 55.8047 5.22559C56.2194 4.53158 56.7145 3.89681 57.29 3.32129C57.8656 2.74577 58.5003 2.25488 59.1943 1.84863C59.8968 1.44238 60.6458 1.12923 61.4414 0.90918C62.2454 0.680664 63.0791 0.566406 63.9424 0.566406C64.8057 0.566406 65.6393 0.680664 66.4434 0.90918C67.2474 1.12923 67.9964 1.44238 68.6904 1.84863C69.3844 2.25488 70.0192 2.74577 70.5947 3.32129C71.1702 3.89681 71.6611 4.53158 72.0674 5.22559C72.4736 5.9196 72.7868 6.66862 73.0068 7.47266C73.2354 8.27669 73.3496 9.11035 73.3496 9.97363ZM69.7314 9.97363C69.7314 9.17806 69.5791 8.42904 69.2744 7.72656C68.9697 7.01562 68.555 6.40202 68.0303 5.88574C67.514 5.361 66.9004 4.94629 66.1895 4.6416C65.487 4.33691 64.738 4.18457 63.9424 4.18457C63.1383 4.18457 62.3851 4.33691 61.6826 4.6416C60.9801 4.94629 60.3665 5.361 59.8418 5.88574C59.3171 6.40202 58.9023 7.01562 58.5977 7.72656C58.293 8.42904 58.1406 9.17806 58.1406 9.97363C58.1406 10.7692 58.293 11.5182 58.5977 12.2207C58.9023 12.9147 59.3171 13.5241 59.8418 14.0488C60.3665 14.5736 60.9801 14.9883 61.6826 15.293C62.3851 15.5977 63.1383 15.75 63.9424 15.75C64.738 15.75 65.487 15.5977 66.1895 15.293C66.9004 14.9883 67.514 14.5736 68.0303 14.0488C68.555 13.5241 68.9697 12.9147 69.2744 12.2207C69.5791 11.5182 69.7314 10.7692 69.7314 9.97363Z" fill="#343434"/>
</svg>
