<svg width="133" height="39" viewBox="0 0 133 39" fill="none" xmlns="http://www.w3.org/2000/svg">
<path fill-rule="evenodd" clip-rule="evenodd" d="M52.0924 2.4188C53.9324 0.534714 58.5291 3.83031 52.0924 8.07107C45.6557 3.83031 50.2525 0.534714 52.0924 2.4188Z" fill="#F05922"/>
<path d="M13.7154 36.1522C12.9669 36.7864 12.1312 37.2776 11.2081 37.6196C10.285 37.9554 9.32447 38.1233 8.32653 38.1233C7.55937 38.1233 6.82339 38.0238 6.11236 37.8186C5.40757 37.6258 4.74644 37.346 4.12896 36.9854C3.51773 36.6247 2.95015 36.1895 2.44494 35.692C1.9335 35.1821 1.4969 34.6225 1.14139 34.0069C0.779638 33.3851 0.498968 32.7198 0.299381 32.0109C0.0997937 31.302 0 30.5621 0 29.7972C0 29.0324 0.0997937 28.2987 0.293144 27.596C0.492731 26.8934 0.779638 26.2343 1.13515 25.6187C1.4969 24.9969 1.9335 24.4372 2.43871 23.9336C2.95015 23.4237 3.51149 22.9884 4.12896 22.634C4.74644 22.2733 5.40133 21.9997 6.11236 21.8008C6.82339 21.6018 7.56561 21.4961 8.32653 21.4961C9.32447 21.4961 10.285 21.6702 11.2081 22.0122C12.1312 22.3479 12.9669 22.833 13.7154 23.4734L12.0251 26.2778C11.5386 25.7866 10.9773 25.401 10.3349 25.1212C9.6987 24.8352 9.02509 24.6922 8.3203 24.6922C7.6155 24.6922 6.94813 24.829 6.33066 25.0964C5.71319 25.3637 5.1768 25.7306 4.70901 26.197C4.24123 26.6509 3.87324 27.1919 3.60505 27.8137C3.33685 28.4293 3.19963 29.0822 3.19963 29.791C3.19963 30.4999 3.33685 31.1652 3.60505 31.787C3.87324 32.4089 4.24123 32.9498 4.70901 33.4162C5.1768 33.8825 5.71319 34.2494 6.33066 34.5168C6.95437 34.7842 7.6155 34.921 8.3203 34.921C8.72571 34.921 9.11864 34.8712 9.49911 34.778C9.87957 34.6785 10.2476 34.5479 10.5906 34.3738V29.7972H13.7092V36.1522H13.7154ZM19.4348 24.9098V31.3518H22.6656C23.1085 31.3518 23.5264 31.2709 23.9131 31.103C24.306 30.9289 24.6428 30.6989 24.9359 30.4066C25.2291 30.1144 25.4599 29.7724 25.622 29.3868C25.7967 28.9889 25.8777 28.5723 25.8777 28.1308C25.8777 27.6893 25.7904 27.2727 25.622 26.8872C25.4599 26.4892 25.2291 26.1472 24.9359 25.855C24.6428 25.5627 24.2998 25.3326 23.9131 25.171C23.5201 24.9969 23.1085 24.916 22.6656 24.916H19.4348V24.9098ZM19.4348 37.7751H16.204V21.6888H22.6656C23.2582 21.6888 23.8257 21.7697 24.3746 21.9251C24.9235 22.0743 25.4349 22.292 25.9027 22.578C26.3829 22.8516 26.8195 23.1936 27.2062 23.5854C27.6054 23.9771 27.9422 24.4061 28.2167 24.8849C28.5036 25.3637 28.7219 25.8736 28.8716 26.4208C29.0275 26.968 29.1086 27.5339 29.1086 28.1246C29.1086 28.678 29.04 29.219 28.8965 29.7413C28.7593 30.2636 28.5597 30.7611 28.2977 31.2336C28.042 31.7062 27.7302 32.1415 27.3497 32.5332C26.9755 32.9312 26.5576 33.2732 26.0898 33.5654L27.8799 37.7751H24.4494L23.0399 34.5354L19.4286 34.5603V37.7751H19.4348ZM95.0535 37.7751H91.8351V26.2902C91.8351 26.0664 91.7915 25.855 91.6979 25.6622C91.6168 25.4694 91.4983 25.3015 91.3486 25.1585C91.2052 25.0093 91.0368 24.8912 90.8434 24.8103C90.6501 24.7295 90.438 24.686 90.2135 24.686C89.9889 24.686 89.7769 24.7295 89.5835 24.8103C89.3902 24.8912 89.2155 25.0093 89.0658 25.1585C88.9224 25.3015 88.8101 25.4694 88.729 25.6622C88.6479 25.855 88.6043 26.0664 88.6043 26.2902V37.7813H85.3735V26.2902C85.3735 26.0664 85.3298 25.855 85.2487 25.6622C85.1676 25.4694 85.0491 25.3015 84.8994 25.1585C84.756 25.0093 84.5876 24.8912 84.3942 24.8103C84.2009 24.7295 83.9888 24.686 83.7643 24.686C83.5398 24.686 83.3277 24.7295 83.1343 24.8103C82.941 24.8912 82.7664 25.0093 82.6167 25.1585C82.4732 25.3015 82.3609 25.4694 82.2799 25.6622C82.1988 25.855 82.1551 26.0664 82.1551 26.2902V37.7813H78.9243V26.2902C78.9243 25.6249 79.049 25.0031 79.2985 24.4186C79.5543 23.8279 79.8973 23.318 80.3339 22.8827C80.7767 22.4412 81.2882 22.0992 81.8745 21.8505C82.467 21.5956 83.0969 21.4712 83.7643 21.4712C84.3631 21.4712 84.9431 21.5769 85.4982 21.7945C86.0533 22.0059 86.5523 22.3106 86.9951 22.7148C87.438 22.3106 87.9307 22.0059 88.4795 21.7945C89.0347 21.5769 89.6147 21.4712 90.2135 21.4712C90.8808 21.4712 91.5045 21.5956 92.0908 21.8505C92.6833 22.0992 93.1948 22.4412 93.6314 22.8827C94.0742 23.318 94.4173 23.8279 94.6668 24.4186C94.9225 25.0031 95.0472 25.6249 95.0472 26.2902V37.7751H95.0535ZM101.178 37.7751H97.9475V21.6888H101.178V37.7751ZM117.089 37.7751H113.634L107.409 27.1856V37.7751H104.178V21.6888H107.634L113.858 32.2907V21.6888H117.089V37.7751ZM133 37.7751H129.545L123.32 27.1856V37.7751H120.089V21.6888H123.545L129.769 32.2907V21.6888H133V37.7751Z" fill="#F05922"/>
<path d="M68.2094 0L48.338 29.2624C48.0199 27.0612 46.8099 24.9968 44.8202 23.6537C43.4543 22.7334 41.8639 22.2484 40.2235 22.2484C37.4917 22.2484 34.9469 23.5915 33.4188 25.8425C32.1901 27.6519 31.741 29.8345 32.1527 31.9798C32.5643 34.125 33.793 35.9842 35.608 37.2092C36.974 38.1295 38.5644 38.6145 40.2048 38.6145C42.9366 38.6145 45.4814 37.2714 47.0095 35.0204L67.7416 4.4957C68.6896 3.10284 68.9142 0.478795 68.2094 0ZM40.211 36.4754C39.001 36.4754 37.8222 36.1148 36.818 35.437C35.4771 34.5292 34.5665 33.1612 34.2608 31.5694C33.9552 29.9837 34.2858 28.3732 35.1964 27.0364C36.3253 25.3699 38.2089 24.3812 40.2235 24.3812C41.4335 24.3812 42.6123 24.7419 43.6165 25.4196C46.3858 27.2913 47.1155 31.0595 45.2381 33.8203C44.1092 35.4868 42.2256 36.4754 40.211 36.4754Z" fill="#F05922"/>
<path d="M70.7663 25.8425C69.2382 23.5915 66.6935 22.2484 63.9616 22.2484C62.3213 22.2484 60.7308 22.7334 59.3649 23.6537C57.3753 24.9968 56.1653 27.0612 55.8472 29.2624L35.9695 0C35.2647 0.478795 35.4893 3.10284 36.4373 4.48948L57.1694 35.0142C58.6975 37.2651 61.2423 38.6083 63.9741 38.6083C65.6145 38.6083 67.2049 38.1232 68.5709 37.203C70.3859 35.978 71.6146 34.1188 72.0262 31.9735C72.4441 29.8283 71.995 27.6519 70.7663 25.8425ZM69.9243 31.5756C69.6187 33.1612 68.7081 34.5354 67.3671 35.4432C66.3567 36.1272 65.1841 36.4817 63.9741 36.4817C61.9533 36.4817 60.0759 35.4868 58.9408 33.8265C57.0634 31.0657 57.7931 27.2975 60.5624 25.4259C61.5728 24.7419 62.7454 24.3874 63.9554 24.3874C65.9762 24.3874 67.8536 25.3823 68.9825 27.0426C69.8994 28.3732 70.2299 29.9837 69.9243 31.5756Z" fill="#F05922"/>
<path d="M74.047 39.0002C71.7704 39.0002 69.5438 38.2229 67.7662 36.8114C67.3047 36.4445 67.2298 35.773 67.5978 35.3128C67.9658 34.8527 68.6394 34.7781 69.1009 35.1449C70.5168 36.2704 72.2257 36.8674 74.047 36.8674C74.6395 36.8674 75.1197 37.3461 75.1197 37.9369C75.1135 38.5214 74.6395 39.0002 74.047 39.0002Z" fill="#F05922"/>
<path d="M61.4605 0L52.0924 13.7918L42.7242 0C42.0257 0.472577 42.244 3.06553 43.1671 4.45839L52.0861 17.6035V17.5973L52.0924 17.6035L61.0114 4.45839C61.9408 3.06553 62.1653 0.472577 61.4605 0Z" fill="black"/>
</svg>
