<svg width="139" height="41" viewBox="0 0 139 41" fill="none" xmlns="http://www.w3.org/2000/svg">
<path d="M16.5098 32.1602C15.6634 32.8796 14.7197 33.4339 13.6787 33.8232C12.6377 34.2041 11.5544 34.3945 10.4287 34.3945C9.56543 34.3945 8.73177 34.2803 7.92773 34.0518C7.13216 33.8317 6.38737 33.5186 5.69336 33.1123C4.99935 32.6976 4.36458 32.2067 3.78906 31.6396C3.21354 31.0641 2.72266 30.4294 2.31641 29.7354C1.91016 29.0329 1.59277 28.2796 1.36426 27.4756C1.14421 26.6715 1.03418 25.8379 1.03418 24.9746C1.03418 24.1113 1.14421 23.2819 1.36426 22.4863C1.59277 21.6908 1.91016 20.946 2.31641 20.252C2.72266 19.5495 3.21354 18.9147 3.78906 18.3477C4.36458 17.7721 4.99935 17.2812 5.69336 16.875C6.38737 16.4688 7.13216 16.1556 7.92773 15.9355C8.73177 15.707 9.56543 15.5928 10.4287 15.5928C11.5544 15.5928 12.6377 15.7874 13.6787 16.1768C14.7197 16.5576 15.6634 17.1077 16.5098 17.8271L14.6055 21.001C14.0553 20.4424 13.4206 20.0065 12.7012 19.6934C11.9818 19.3717 11.2243 19.2109 10.4287 19.2109C9.63314 19.2109 8.88411 19.3633 8.18164 19.668C7.48763 19.9727 6.87826 20.3874 6.35352 20.9121C5.82878 21.4284 5.41406 22.0378 5.10938 22.7402C4.80469 23.4342 4.65234 24.179 4.65234 24.9746C4.65234 25.7786 4.80469 26.5319 5.10938 27.2344C5.41406 27.9368 5.82878 28.5505 6.35352 29.0752C6.87826 29.5999 7.48763 30.0146 8.18164 30.3193C8.88411 30.624 9.63314 30.7764 10.4287 30.7764C10.8857 30.7764 11.3301 30.7214 11.7617 30.6113C12.1934 30.5013 12.6038 30.349 12.9932 30.1543V24.9746H16.5098V32.1602ZM22.959 19.4395V26.7266H26.6025C27.1019 26.7266 27.5716 26.6335 28.0117 26.4473C28.4518 26.2526 28.8369 25.9902 29.167 25.6602C29.4971 25.3301 29.7552 24.945 29.9414 24.5049C30.1361 24.0563 30.2334 23.5824 30.2334 23.083C30.2334 22.5837 30.1361 22.1139 29.9414 21.6738C29.7552 21.2253 29.4971 20.8359 29.167 20.5059C28.8369 20.1758 28.4518 19.9176 28.0117 19.7314C27.5716 19.5368 27.1019 19.4395 26.6025 19.4395H22.959ZM22.959 34.001H19.3154V15.7959H26.6025C27.2712 15.7959 27.9144 15.8848 28.5322 16.0625C29.1501 16.2318 29.7256 16.4772 30.2588 16.7988C30.8005 17.112 31.2913 17.4928 31.7314 17.9414C32.18 18.3815 32.5609 18.8724 32.874 19.4141C33.1956 19.9557 33.4411 20.5355 33.6104 21.1533C33.7881 21.7712 33.877 22.4144 33.877 23.083C33.877 23.7093 33.7965 24.3187 33.6357 24.9111C33.4834 25.5036 33.2591 26.0664 32.9629 26.5996C32.6751 27.1328 32.3197 27.6237 31.8965 28.0723C31.4733 28.5208 30.9993 28.9102 30.4746 29.2402L32.4932 34.001H28.6211L27.0342 30.332L22.959 30.3574V34.001ZM94.8145 34.001H91.1836V21.001C91.1836 20.7471 91.1328 20.5101 91.0312 20.29C90.9382 20.07 90.807 19.8796 90.6377 19.7188C90.4769 19.5495 90.2865 19.4183 90.0664 19.3252C89.8464 19.2321 89.6094 19.1855 89.3555 19.1855C89.1016 19.1855 88.8646 19.2321 88.6445 19.3252C88.4245 19.4183 88.2298 19.5495 88.0605 19.7188C87.8997 19.8796 87.7728 20.07 87.6797 20.29C87.5866 20.5101 87.54 20.7471 87.54 21.001V34.001H83.8965V21.001C83.8965 20.7471 83.8499 20.5101 83.7568 20.29C83.6637 20.07 83.5326 19.8796 83.3633 19.7188C83.2025 19.5495 83.012 19.4183 82.792 19.3252C82.5719 19.2321 82.335 19.1855 82.0811 19.1855C81.8271 19.1855 81.5902 19.2321 81.3701 19.3252C81.1501 19.4183 80.9554 19.5495 80.7861 19.7188C80.6253 19.8796 80.4984 20.07 80.4053 20.29C80.3122 20.5101 80.2656 20.7471 80.2656 21.001V34.001H76.6221V21.001C76.6221 20.2477 76.7617 19.541 77.041 18.8809C77.3288 18.2122 77.7181 17.6325 78.209 17.1416C78.7083 16.6423 79.2881 16.2529 79.9482 15.9736C80.6169 15.6859 81.3278 15.542 82.0811 15.542C82.7581 15.542 83.4098 15.6647 84.0361 15.9102C84.6624 16.1471 85.2253 16.4941 85.7246 16.9512C86.224 16.4941 86.7826 16.1471 87.4004 15.9102C88.0267 15.6647 88.6784 15.542 89.3555 15.542C90.1087 15.542 90.8154 15.6859 91.4756 15.9736C92.1442 16.2529 92.724 16.6423 93.2148 17.1416C93.7142 17.6325 94.1035 18.2122 94.3828 18.8809C94.6706 19.541 94.8145 20.2477 94.8145 21.001V34.001ZM101.721 34.001H98.0771V15.7959H101.721V34.001ZM119.672 34.001H115.774L108.754 22.0166V34.001H105.11V15.7959H109.008L116.028 27.793V15.7959H119.672V34.001ZM137.547 32.1602C136.701 32.8796 135.757 33.4339 134.716 33.8232C133.675 34.2041 132.591 34.3945 131.466 34.3945C130.603 34.3945 129.769 34.2803 128.965 34.0518C128.169 33.8317 127.424 33.5186 126.73 33.1123C126.036 32.6976 125.402 32.2067 124.826 31.6396C124.251 31.0641 123.76 30.4294 123.354 29.7354C122.947 29.0329 122.63 28.2796 122.401 27.4756C122.181 26.6715 122.071 25.8379 122.071 24.9746C122.071 24.1113 122.181 23.2819 122.401 22.4863C122.63 21.6908 122.947 20.946 123.354 20.252C123.76 19.5495 124.251 18.9147 124.826 18.3477C125.402 17.7721 126.036 17.2812 126.73 16.875C127.424 16.4688 128.169 16.1556 128.965 15.9355C129.769 15.707 130.603 15.5928 131.466 15.5928C132.591 15.5928 133.675 15.7874 134.716 16.1768C135.757 16.5576 136.701 17.1077 137.547 17.8271L135.643 21.001C135.092 20.4424 134.458 20.0065 133.738 19.6934C133.019 19.3717 132.261 19.2109 131.466 19.2109C130.67 19.2109 129.921 19.3633 129.219 19.668C128.525 19.9727 127.915 20.3874 127.391 20.9121C126.866 21.4284 126.451 22.0378 126.146 22.7402C125.842 23.4342 125.689 24.179 125.689 24.9746C125.689 25.7786 125.842 26.5319 126.146 27.2344C126.451 27.9368 126.866 28.5505 127.391 29.0752C127.915 29.5999 128.525 30.0146 129.219 30.3193C129.921 30.624 130.67 30.7764 131.466 30.7764C131.923 30.7764 132.367 30.7214 132.799 30.6113C133.23 30.5013 133.641 30.349 134.03 30.1543V24.9746H137.547V32.1602Z" fill="#F05922"/>
<path d="M54.1133 24.9746C54.1133 25.8379 53.999 26.6715 53.7705 27.4756C53.5505 28.2712 53.2373 29.0202 52.8311 29.7227C52.4248 30.4167 51.9339 31.0514 51.3584 31.627C50.7829 32.2025 50.1481 32.6976 49.4541 33.1123C48.7601 33.5186 48.0111 33.8317 47.207 34.0518C46.403 34.2803 45.5693 34.3945 44.7061 34.3945C43.8428 34.3945 43.0091 34.2803 42.2051 34.0518C41.4095 33.8317 40.6605 33.5186 39.958 33.1123C39.264 32.6976 38.6292 32.2025 38.0537 31.627C37.4782 31.0514 36.9831 30.4167 36.5684 29.7227C36.1621 29.0202 35.8447 28.2712 35.6162 27.4756C35.3962 26.6715 35.2861 25.8379 35.2861 24.9746C35.2861 24.1113 35.3962 23.2777 35.6162 22.4736C35.8447 21.6696 36.1621 20.9206 36.5684 20.2266C36.9831 19.5326 37.4782 18.8978 38.0537 18.3223C38.6292 17.7467 39.264 17.2559 39.958 16.8496C40.6605 16.4434 41.4095 16.1302 42.2051 15.9102C43.0091 15.6816 43.8428 15.5674 44.7061 15.5674C45.5693 15.5674 46.403 15.6816 47.207 15.9102C48.0111 16.1302 48.7601 16.4434 49.4541 16.8496C50.1481 17.2559 50.7829 17.7467 51.3584 18.3223C51.9339 18.8978 52.4248 19.5326 52.8311 20.2266C53.2373 20.9206 53.5505 21.6696 53.7705 22.4736C53.999 23.2777 54.1133 24.1113 54.1133 24.9746ZM50.4951 24.9746C50.4951 24.179 50.3428 23.43 50.0381 22.7275C49.7334 22.0166 49.3187 21.403 48.7939 20.8867C48.2777 20.362 47.6641 19.9473 46.9531 19.6426C46.2507 19.3379 45.5016 19.1855 44.7061 19.1855C43.902 19.1855 43.1488 19.3379 42.4463 19.6426C41.7438 19.9473 41.1302 20.362 40.6055 20.8867C40.0807 21.403 39.666 22.0166 39.3613 22.7275C39.0566 23.43 38.9043 24.179 38.9043 24.9746C38.9043 25.7702 39.0566 26.5192 39.3613 27.2217C39.666 27.9157 40.0807 28.5251 40.6055 29.0498C41.1302 29.5745 41.7438 29.9893 42.4463 30.2939C43.1488 30.5986 43.902 30.751 44.7061 30.751C45.5016 30.751 46.2507 30.5986 46.9531 30.2939C47.6641 29.9893 48.2777 29.5745 48.7939 29.0498C49.3187 28.5251 49.7334 27.9157 50.0381 27.2217C50.3428 26.5192 50.4951 25.7702 50.4951 24.9746ZM74.3496 24.9746C74.3496 25.8379 74.2354 26.6715 74.0068 27.4756C73.7868 28.2712 73.4736 29.0202 73.0674 29.7227C72.6611 30.4167 72.1702 31.0514 71.5947 31.627C71.0192 32.2025 70.3844 32.6976 69.6904 33.1123C68.9964 33.5186 68.2474 33.8317 67.4434 34.0518C66.6393 34.2803 65.8057 34.3945 64.9424 34.3945C64.0791 34.3945 63.2454 34.2803 62.4414 34.0518C61.6458 33.8317 60.8968 33.5186 60.1943 33.1123C59.5003 32.6976 58.8656 32.2025 58.29 31.627C57.7145 31.0514 57.2194 30.4167 56.8047 29.7227C56.3984 29.0202 56.0811 28.2712 55.8525 27.4756C55.6325 26.6715 55.5225 25.8379 55.5225 24.9746C55.5225 24.1113 55.6325 23.2777 55.8525 22.4736C56.0811 21.6696 56.3984 20.9206 56.8047 20.2266C57.2194 19.5326 57.7145 18.8978 58.29 18.3223C58.8656 17.7467 59.5003 17.2559 60.1943 16.8496C60.8968 16.4434 61.6458 16.1302 62.4414 15.9102C63.2454 15.6816 64.0791 15.5674 64.9424 15.5674C65.8057 15.5674 66.6393 15.6816 67.4434 15.9102C68.2474 16.1302 68.9964 16.4434 69.6904 16.8496C70.3844 17.2559 71.0192 17.7467 71.5947 18.3223C72.1702 18.8978 72.6611 19.5326 73.0674 20.2266C73.4736 20.9206 73.7868 21.6696 74.0068 22.4736C74.2354 23.2777 74.3496 24.1113 74.3496 24.9746ZM70.7314 24.9746C70.7314 24.179 70.5791 23.43 70.2744 22.7275C69.9697 22.0166 69.555 21.403 69.0303 20.8867C68.514 20.362 67.9004 19.9473 67.1895 19.6426C66.487 19.3379 65.738 19.1855 64.9424 19.1855C64.1383 19.1855 63.3851 19.3379 62.6826 19.6426C61.9801 19.9473 61.3665 20.362 60.8418 20.8867C60.3171 21.403 59.9023 22.0166 59.5977 22.7275C59.293 23.43 59.1406 24.179 59.1406 24.9746C59.1406 25.7702 59.293 26.5192 59.5977 27.2217C59.9023 27.9157 60.3171 28.5251 60.8418 29.0498C61.3665 29.5745 61.9801 29.9893 62.6826 30.2939C63.3851 30.5986 64.1383 30.751 64.9424 30.751C65.738 30.751 66.487 30.5986 67.1895 30.2939C67.9004 29.9893 68.514 29.5745 69.0303 29.0498C69.555 28.5251 69.9697 27.9157 70.2744 27.2217C70.5791 26.5192 70.7314 25.7702 70.7314 24.9746Z" fill="#343434"/>
<path fill-rule="evenodd" clip-rule="evenodd" d="M100 1.48878C102.774 -1.1235 109.71 3.4477 100 9.32563C90.2908 3.44828 97.2263 -1.1235 100 1.48878Z" fill="#F05922"/>
<path fill-rule="evenodd" clip-rule="evenodd" d="M44.9998 23.4514C46.664 21.8842 50.8248 24.6266 44.9998 28.153C39.1748 24.627 43.3356 21.8842 44.9998 23.4514Z" fill="#F05922"/>
<path fill-rule="evenodd" clip-rule="evenodd" d="M64.9998 23.4514C66.664 21.8842 70.8248 24.6266 64.9998 28.153C59.1748 24.627 63.3356 21.8842 64.9998 23.4514Z" fill="#F05922"/>
</svg>
